<svg xmlns="http://www.w3.org/2000/svg" viewBox="0 0 400 520"><rect width="400" height="520" fill="#fff"/><g fill="#111" fill-rule="nonzero"><path d="M142.0,190.0L142.0,192.4L141.7,194.8L141.3,197.2L140.9,199.5L140.5,201.9L140.1,204.3L139.8,206.7L139.5,209.1L139.2,211.4L138.9,213.8L138.6,216.2L138.3,218.5L138.0,220.9L137.7,223.3L137.4,225.7L137.1,228.1L136.9,230.6L136.8,233.0L136.8,235.5L136.9,238.0L137.1,240.4L137.4,242.9L137.8,245.3L138.1,247.7L138.5,250.1L138.8,252.4L139.0,254.8L139.3,257.2L139.5,259.6L139.8,262.0L140.2,264.4L140.6,266.9L141.3,269.3L142.0,271.6L142.9,273.9L143.9,276.2L145.0,278.4L146.0,280.6L147.0,282.7L148.0,284.9L148.8,287.1L149.6,289.3L150.4,291.6L151.1,293.8L151.1,293.7L151.1,293.5L151.3,293.4L151.4,293.4L151.6,293.4L151.7,293.5L151.8,293.6L151.3,291.3L150.8,289.0L150.2,286.6L149.7,284.3L149.0,282.0L148.2,279.7L147.4,277.4L146.6,275.1L145.8,272.8L145.1,270.6L144.4,268.4L143.8,266.1L143.3,263.8L142.8,261.5L142.3,259.2L141.9,256.8L141.4,254.4L140.9,252.1L140.3,249.7L139.8,247.4L139.3,245.0L138.9,242.6L138.6,240.3L138.4,237.9L138.4,235.5L138.5,233.1L138.8,230.7L139.2,228.4L139.6,226.0L140.0,223.6L140.5,221.2L140.8,218.8L141.1,216.4L141.2,214.0L141.4,211.6L141.4,209.2L141.5,206.8L141.6,204.4L141.7,202.0L141.8,199.6L141.9,197.2L142.1,194.8L142.2,192.4L142.0,190.0Z"/><path d="M155.3,305.1L156.4,307.2L157.6,309.3L158.7,311.4L159.8,313.5L160.7,315.7L161.6,318.0L162.5,320.2L163.4,322.4L164.4,324.6L165.5,326.8L166.8,328.9L168.2,331.0L169.7,332.9L171.3,334.8L172.9,336.7L174.6,338.5L176.2,340.3L177.8,342.1L179.5,343.9L181.3,345.6L183.2,347.2L185.2,348.6L187.4,349.8L189.7,350.8L192.0,351.7L194.3,352.4L196.6,353.1L199.0,353.7L201.3,354.4L203.0,355.0L203.0,355.0L201.3,354.3L199.0,353.5L196.8,352.7L194.5,351.9L192.3,350.9L190.2,349.7L188.2,348.4L186.3,347.0L184.5,345.5L182.7,344.0L180.9,342.4L179.0,340.9L177.2,339.3L175.4,337.7L173.8,335.9L172.3,334.1L170.9,332.1L169.8,330.0L168.7,327.8L167.8,325.7L166.8,323.5L165.8,321.3L164.6,319.2L163.4,317.1L162.1,315.0L160.8,313.0L159.5,311.0L158.3,308.9L157.1,306.8L156.0,304.7L156.1,304.9L156.0,305.1L155.9,305.2L155.8,305.3L155.6,305.3L155.4,305.2Z"/><path d="M142.7,268.8L142.7,271.2L142.7,273.7L142.7,276.1L142.8,278.6L143.1,281.0L143.6,283.4L144.2,285.8L145.1,288.2L146.1,290.5L147.1,292.8L148.2,295.0L149.2,297.3L150.2,299.5L151.0,301.9L151.8,304.2L152.6,306.5L153.5,308.8L154.4,311.1L155.5,313.2L156.8,315.3L158.2,317.3L159.8,319.2L161.4,321.0L163.1,322.8L164.8,324.6L166.4,326.5L167.9,328.3L169.4,330.2L170.9,332.2L172.3,334.1L173.9,335.9L175.5,337.7L177.2,339.4L178.9,341.0L178.8,340.8L178.8,340.5L178.9,340.2L179.1,340.0L179.4,340.0L179.6,340.0L179.9,340.2L178.5,338.2L177.0,336.4L175.5,334.5L174.0,332.7L172.4,330.9L170.9,329.1L169.5,327.2L168.3,325.1L167.2,323.0L166.3,320.8L165.4,318.5L164.5,316.3L163.6,314.1L162.6,311.9L161.5,309.8L160.2,307.8L158.7,305.9L157.2,304.0L155.7,302.1L154.2,300.2L152.9,298.2L151.7,296.1L150.8,293.9L150.1,291.6L149.6,289.3L149.2,287.0L148.8,284.7L148.4,282.4L147.9,280.1L147.3,277.8L146.7,275.5L145.9,273.2L145.1,270.8L144.4,268.5L144.4,268.9L144.2,269.2L143.9,269.5L143.5,269.5L143.1,269.4L142.8,269.2Z"/><path d="M200.0,356.0L202.2,355.0L204.4,354.2L206.7,353.4L209.0,352.7L211.3,351.9L213.5,351.0L215.7,349.9L217.8,348.7L219.8,347.4L221.7,345.8L223.4,344.2L225.0,342.4L226.5,340.7L228.1,338.9L229.7,337.1L231.3,335.3L232.9,333.6L234.6,331.8L236.2,329.9L237.7,327.9L239.1,325.9L240.4,323.7L241.5,321.5L242.4,319.2L243.2,316.8L243.9,314.5L244.6,312.2L245.2,309.8L245.9,307.5L246.6,305.2L247.3,302.9L248.1,300.6L248.8,298.3L249.6,295.9L250.2,293.5L250.8,291.1L251.2,288.7L251.6,286.3L251.9,283.8L252.1,281.4L252.4,279.1L252.6,276.7L252.9,274.4L253.2,272.1L253.5,269.7L253.8,267.3L254.2,264.9L254.4,262.5L254.7,260.1L254.9,257.7L255.0,255.3L255.2,252.9L255.4,250.5L255.6,248.1L255.8,245.8L256.1,243.4L256.1,243.6L255.9,243.7L255.7,243.8L255.5,243.7L255.4,243.6L255.3,243.5L255.3,243.3L254.9,245.7L254.7,248.0L254.5,250.4L254.3,252.8L254.1,255.2L253.9,257.6L253.5,259.9L253.0,262.3L252.4,264.6L251.7,266.9L251.0,269.2L250.3,271.5L249.7,273.9L249.3,276.3L248.9,278.7L248.7,281.2L248.7,283.6L248.6,286.0L248.6,288.4L248.4,290.8L248.2,293.1L247.8,295.5L247.3,297.8L246.5,300.1L245.7,302.3L244.8,304.5L243.8,306.8L242.8,309.0L241.8,311.2L240.8,313.4L239.9,315.6L239.0,317.8L238.1,320.0L237.2,322.1L236.2,324.2L235.1,326.3L234.0,328.4L232.7,330.4L231.4,332.4L230.1,334.3L228.6,336.3L227.2,338.1L225.7,339.9L224.2,341.7L222.6,343.4L220.9,344.9L219.0,346.3L217.1,347.6L215.1,348.7L213.0,349.8L210.8,350.8L208.7,351.8L206.5,352.8L204.3,353.7L202.1,354.8L200.0,356.0Z"/><path d="M258.7,229.2L259.1,226.8L259.2,224.4L259.2,221.9L259.0,219.5L258.8,217.1L258.8,214.7L258.9,212.3L259.0,209.9L259.0,207.5L258.8,205.1L258.6,202.7L258.4,200.3L258.2,197.9L258.0,195.5L257.8,193.1L257.5,190.7L257.0,190.0L257.0,190.0L257.2,190.8L257.4,193.2L257.6,195.5L257.8,197.9L257.8,200.3L257.7,202.7L257.5,205.1L257.4,207.5L257.5,209.9L257.7,212.3L258.0,214.7L258.2,217.1L258.2,219.5L258.1,221.9L258.0,224.3L257.9,226.7L257.8,229.1L257.9,228.9L258.0,228.8L258.2,228.7L258.4,228.7L258.6,228.8L258.7,229.0Z"/><path d="M213.7,351.3L216.0,350.6L218.3,349.7L220.5,348.5L222.5,347.0L224.4,345.4L226.3,343.7L228.1,342.0L230.0,340.3L231.8,338.5L233.4,336.5L234.6,334.3L235.5,332.0L236.2,329.6L236.8,327.2L237.5,324.9L238.5,322.8L239.8,320.7L241.0,318.6L242.2,316.5L243.2,314.3L243.8,311.9L244.2,309.5L244.6,307.1L245.0,304.7L245.5,302.3L245.4,302.5L245.2,302.6L245.0,302.7L244.8,302.6L244.7,302.5L244.6,302.3L244.6,302.1L243.8,304.3L242.7,306.5L241.5,308.6L240.3,310.6L239.3,312.8L238.4,314.9L237.8,317.2L237.2,319.6L236.5,321.9L235.7,324.1L234.5,326.2L233.2,328.2L231.8,330.1L230.5,332.1L229.4,334.2L228.4,336.3L227.5,338.5L226.5,340.7L225.2,342.6L223.5,344.4L221.6,345.8L219.6,347.1L217.5,348.3L215.5,349.5L213.4,350.7Z"/><path d="M146.9,190.3L147.9,191.9L148.8,193.4L149.4,195.0L149.3,196.6L148.7,198.2L147.7,199.5L146.7,200.8L145.7,201.9L144.7,203.1L143.3,204.0L141.8,204.6L140.1,204.5L138.5,204.0L137.2,203.2L136.0,202.2L134.8,201.2L133.7,200.1L132.9,198.8L132.5,197.1L132.6,195.4L133.2,193.9L134.2,192.5L135.5,191.4L137.0,190.6L138.3,190.1L138.3,190.1L136.9,190.3L135.2,190.9L133.7,192.1L132.7,193.6L132.0,195.3L131.8,197.1L131.8,199.0L132.3,200.9L133.2,202.6L134.6,204.0L136.2,205.0L138.1,205.5L139.9,205.7L141.9,205.8L143.9,205.7L145.9,205.2L147.8,204.2L149.3,202.7L150.2,200.8L150.7,198.8L150.9,196.8L150.8,194.8L150.6,192.9L150.3,190.9L149.9,189.1L150.0,189.8L149.8,190.5L149.3,191.1L148.7,191.3L147.9,191.3L147.3,190.9Z"/><path d="M137.5,178.3L139.3,178.6L141.1,178.8L142.7,179.1L144.1,179.5L145.3,180.2L146.6,181.0L147.8,182.0L148.9,183.1L149.8,184.5L150.4,186.1L150.7,187.8L150.5,189.5L149.8,191.1L148.8,192.5L147.6,193.6L146.1,194.4L144.6,194.9L143.0,195.3L141.4,195.3L139.7,195.1L138.2,194.5L136.8,193.4L135.7,192.0L135.2,190.4L135.1,188.6L135.0,187.5L135.0,187.5L135.0,188.6L135.0,190.4L135.4,192.2L136.4,193.8L137.7,195.2L139.3,196.2L141.1,196.9L143.1,197.2L145.1,196.9L147.0,196.2L148.8,195.1L150.1,193.5L151.1,191.7L151.7,189.8L151.9,187.8L151.7,185.9L151.4,183.9L150.8,182.1L149.9,180.3L148.7,178.7L147.1,177.4L145.2,176.3L143.1,176.0L141.1,176.1L139.3,176.4L137.6,176.6L137.9,176.7L138.2,176.9L138.4,177.3L138.4,177.7L138.2,178.0L137.9,178.3Z"/><path d="M128.6,180.6L127.9,179.0L127.4,177.3L127.1,175.6L127.0,174.0L127.0,172.5L127.2,171.0L127.5,169.4L128.0,167.8L128.8,166.4L129.9,165.2L131.4,164.3L132.9,163.7L134.5,163.4L136.0,163.3L137.6,163.3L139.1,163.3L140.7,163.6L142.2,164.2L143.6,165.1L144.7,166.4L145.5,167.9L145.9,169.5L146.1,171.2L146.1,172.9L145.8,174.5L145.1,176.1L144.0,177.5L142.5,178.5L140.9,179.2L139.9,179.6L139.9,179.6L140.9,179.3L142.6,178.7L144.3,177.9L145.7,176.6L146.8,174.9L147.4,173.0L147.5,171.1L147.1,169.2L146.3,167.5L145.4,165.9L144.2,164.5L143.0,163.1L141.5,161.9L139.7,161.0L137.7,160.6L135.8,160.6L133.9,161.1L132.2,162.0L130.6,163.1L129.1,164.1L127.6,165.3L126.2,166.7L125.0,168.3L124.1,170.2L123.7,172.3L123.9,174.4L124.7,176.3L125.6,178.0L126.6,179.6L127.3,181.2L127.3,180.9L127.3,180.6L127.5,180.4L127.8,180.2L128.1,180.2L128.4,180.4Z"/><path d="M132.3,175.5L133.8,174.5L135.5,173.6L137.1,172.9L138.9,172.0L140.6,170.9L141.9,169.3L142.9,167.6L143.4,165.6L143.4,163.6L143.1,161.7L142.6,160.0L142.0,158.2L141.4,156.4L140.5,154.7L139.3,153.1L137.7,151.8L135.8,151.0L133.8,150.8L131.8,151.0L129.9,151.4L128.1,152.1L126.5,153.1L124.9,154.2L123.7,155.7L122.9,157.5L122.5,159.5L122.8,161.4L123.6,163.1L124.4,164.7L124.6,164.9L124.6,164.9L124.5,164.7L123.9,163.0L123.4,161.3L123.4,159.5L123.9,157.9L124.6,156.3L125.6,154.9L126.9,153.7L128.5,152.8L130.1,152.4L131.9,152.4L133.5,152.7L135.0,153.3L136.4,154.0L137.7,154.9L139.0,155.9L140.1,157.1L140.9,158.6L141.2,160.2L141.2,161.9L140.9,163.5L140.4,164.9L139.8,166.4L139.3,167.8L138.6,169.3L137.8,170.6L136.5,171.6L134.9,172.3L133.1,172.7L131.3,173.1L131.9,173.0L132.5,173.2L132.9,173.6L133.1,174.1L133.1,174.7L132.8,175.2Z"/><path d="M120.3,158.0L120.2,156.2L120.0,154.4L119.8,152.8L119.8,151.2L120.3,149.6L121.3,148.2L122.6,147.1L124.0,146.2L125.7,145.8L127.3,145.7L128.9,145.7L130.4,146.0L131.8,146.5L133.2,147.2L134.4,148.1L135.5,149.3L136.3,150.7L136.9,152.3L137.0,153.9L136.8,155.6L136.2,157.1L135.1,158.4L133.8,159.5L132.4,160.2L130.7,160.5L128.9,160.7L128.8,160.8L128.8,160.8L128.9,160.9L130.7,161.0L132.5,160.9L134.3,160.2L135.8,159.0L136.9,157.5L137.5,155.7L137.8,153.9L137.7,152.1L137.4,150.3L136.9,148.6L136.0,146.8L134.7,145.3L133.0,144.1L131.1,143.3L129.0,143.1L127.0,143.4L125.1,144.0L123.3,144.9L121.7,146.0L120.3,147.3L118.9,148.7L117.8,150.5L117.1,152.5L116.9,154.5L116.9,156.4L116.9,158.2L117.1,157.4L117.5,156.8L118.2,156.4L118.9,156.4L119.6,156.7L120.1,157.3Z"/><path d="M139.8,145.5L138.1,144.9L137.0,143.8L136.7,142.4L136.7,141.1L136.7,139.8L136.7,138.4L137.2,136.9L138.5,135.9L140.0,135.8L141.5,136.2L142.8,137.0L143.9,138.2L144.5,139.8L143.9,141.5L143.5,142.2L143.5,142.2L144.1,141.6L144.9,139.8L144.8,137.8L144.0,135.9L142.2,134.5L140.0,134.2L138.0,134.9L136.3,136.1L134.9,137.5L133.8,139.2L133.4,141.3L134.1,143.4L135.6,145.0L137.4,146.0L138.9,147.2L138.5,146.9L138.4,146.5L138.4,146.1L138.6,145.7L139.0,145.5L139.4,145.4Z"/><path d="M144.9,141.1L146.7,140.7L148.8,140.2L150.7,138.8L151.7,136.7L151.7,134.5L150.9,132.6L150.0,131.0L148.8,129.5L147.1,128.3L145.1,127.8L143.0,128.3L141.4,129.7L140.5,131.6L140.4,133.5L141.0,135.3L141.3,135.3L141.3,135.3L141.2,135.2L140.8,133.5L141.2,131.8L142.3,130.7L143.7,130.1L145.1,129.8L146.6,129.9L147.9,130.5L148.9,131.6L149.2,133.1L148.9,134.6L148.5,135.8L148.1,137.1L147.5,138.3L146.2,139.2L144.5,139.7L144.9,139.7L145.1,139.8L145.3,140.0L145.4,140.4L145.4,140.7L145.2,140.9Z"/><path d="M144.1,109.1L142.4,109.8L140.7,110.7L139.1,111.9L137.7,113.5L136.9,115.4L136.5,117.4L136.4,119.3L136.5,121.1L136.6,123.0L137.0,124.8L137.6,126.6L138.5,128.4L139.8,130.0L141.4,131.2L143.2,131.9L145.2,132.3L147.2,132.2L149.0,131.9L150.9,131.2L152.5,130.3L154.0,129.0L155.2,127.5L156.1,125.7L156.4,123.8L156.3,121.9L155.5,120.1L154.4,118.6L153.4,117.3L153.4,117.3L154.2,118.8L155.1,120.3L155.5,122.0L155.6,123.8L155.3,125.5L154.6,127.1L153.5,128.5L152.1,129.6L150.5,130.3L148.8,130.6L147.1,130.5L145.6,130.2L144.1,129.6L142.7,128.8L141.4,128.0L140.2,127.0L139.2,125.8L138.4,124.3L137.9,122.8L137.9,121.1L138.2,119.5L138.7,118.0L139.5,116.6L140.4,115.4L141.4,114.4L142.6,113.3L143.9,112.2L145.3,111.0L144.8,111.2L144.3,111.1L143.8,110.9L143.6,110.4L143.5,109.9L143.7,109.4Z"/><path d="M152.1,105.2L153.9,105.4L155.4,106.0L156.4,107.1L157.1,108.4L158.0,109.5L158.8,110.7L159.4,112.2L159.3,113.8L158.4,115.1L157.1,116.1L155.7,116.8L154.2,117.3L152.6,117.5L150.9,117.0L149.6,115.8L148.9,114.2L148.9,112.4L149.0,110.8L149.0,110.8L148.6,112.4L148.6,114.3L149.3,116.0L150.5,117.6L152.2,118.8L154.4,119.2L156.5,118.8L158.2,117.6L159.5,116.0L160.4,114.2L160.9,112.3L161.2,110.2L160.8,108.1L159.7,106.4L158.1,105.1L156.1,104.4L154.2,104.0L152.4,103.5L152.8,103.7L153.1,104.0L153.2,104.3L153.1,104.7L152.8,105.0L152.5,105.2Z"/><path d="M161.3,124.2L163.0,123.8L164.8,123.4L166.6,123.1L168.5,122.6L170.3,121.7L171.9,120.7L173.4,119.4L174.8,117.9L175.9,116.2L176.5,114.1L176.7,112.0L176.5,109.9L175.7,107.9L174.6,106.2L173.3,104.7L171.9,103.4L170.4,102.4L168.7,101.5L166.9,100.9L165.0,100.6L163.1,100.8L161.3,101.4L159.6,102.4L158.3,103.7L157.3,105.3L156.7,107.0L156.4,108.8L156.6,110.5L156.7,112.1L156.7,112.1L156.7,110.5L156.8,108.8L157.2,107.2L158.1,105.7L159.1,104.5L160.4,103.5L161.9,102.7L163.4,102.2L165.0,102.0L166.7,102.1L168.3,102.5L169.9,103.2L171.2,104.2L172.3,105.6L173.2,107.1L173.7,108.7L173.9,110.3L173.8,111.9L173.5,113.4L173.0,114.9L172.4,116.4L171.5,117.8L170.5,119.2L169.4,120.4L168.0,121.2L166.4,121.7L164.6,121.8L162.8,121.8L161.0,121.8L161.5,121.8L162.0,122.1L162.3,122.6L162.3,123.1L162.2,123.6L161.8,124.0Z"/><path d="M179.6,106.9L181.0,105.7L182.4,104.3L183.6,102.6L184.3,100.5L184.2,98.3L183.8,96.3L183.0,94.4L181.8,92.7L180.5,91.3L179.0,90.0L177.3,89.0L175.4,88.5L173.4,88.4L171.4,88.8L169.7,89.7L168.3,91.0L167.2,92.5L166.5,94.3L166.1,96.1L166.2,97.9L166.7,99.7L167.8,101.2L169.3,102.3L170.0,102.6L170.0,102.6L169.5,102.1L168.1,101.0L167.1,99.6L166.6,97.9L166.7,96.2L167.3,94.6L168.2,93.3L169.4,92.3L170.8,91.6L172.2,91.1L173.6,90.7L175.2,90.6L176.7,90.7L178.3,91.2L179.7,92.2L180.7,93.5L181.3,95.1L181.5,96.7L181.4,98.3L181.0,99.8L180.5,101.1L179.8,102.5L179.0,103.9L178.0,105.5L178.4,105.2L178.9,105.1L179.3,105.2L179.7,105.6L179.8,106.0L179.8,106.5Z"/><path d="M173.0,87.8L172.1,89.5L171.2,91.2L170.4,93.0L169.8,94.9L169.4,96.9L169.8,98.9L170.9,100.6L172.5,101.9L174.3,102.9L176.1,103.7L178.0,104.1L180.1,103.9L182.0,103.0L183.4,101.4L184.2,99.5L184.6,97.6L184.4,95.6L183.5,93.9L182.0,92.7L181.3,92.4L181.3,92.4L181.7,93.0L183.0,94.3L183.8,95.8L184.1,97.6L183.6,99.3L182.4,100.5L180.9,101.3L179.5,101.8L178.0,102.2L176.4,102.3L174.8,101.9L173.7,100.7L173.1,99.3L172.8,97.9L172.4,96.5L171.9,95.0L171.8,93.5L172.5,92.1L173.8,91.0L175.3,90.0L174.8,90.4L174.1,90.5L173.4,90.3L172.9,89.8L172.6,89.1L172.7,88.4Z"/><path d="M188.1,89.8L189.4,91.0L189.9,92.6L190.0,94.0L190.4,95.4L190.9,96.9L190.2,98.4L188.8,99.2L187.3,99.5L185.9,100.1L184.2,100.4L182.7,99.6L182.0,98.1L181.7,96.6L181.5,95.1L181.9,93.5L183.1,92.2L183.0,92.1L183.0,92.1L183.0,92.1L181.6,93.3L180.6,94.8L180.2,96.8L180.7,98.7L182.1,100.3L183.8,101.5L185.9,102.3L188.2,102.2L190.0,101.0L191.3,99.2L192.4,97.4L193.3,95.4L193.3,93.2L192.1,91.4L190.5,90.1L189.5,88.6L189.7,89.0L189.7,89.4L189.5,89.7L189.2,90.0L188.8,90.1L188.4,90.0Z"/><path d="M205.9,93.7L204.2,93.4L202.6,93.9L201.0,93.7L200.2,92.3L200.1,90.8L199.9,89.4L199.7,87.8L200.4,86.4L201.8,85.8L203.2,85.7L204.6,85.7L206.1,86.2L207.2,87.3L207.4,89.0L207.6,89.6L207.6,89.6L207.8,89.0L207.6,87.2L206.5,85.7L205.1,84.5L203.3,83.7L201.2,84.2L199.6,85.6L198.3,87.2L197.2,89.1L197.2,91.4L198.5,93.3L200.2,94.8L202.0,96.1L204.1,96.8L205.9,96.6L205.3,96.4L204.8,96.0L204.5,95.4L204.5,94.8L204.8,94.2L205.3,93.8Z"/><path d="M212.9,86.1L214.3,87.2L215.3,88.5L215.5,90.1L215.3,91.6L215.0,93.1L214.5,94.3L213.7,95.6L212.4,96.5L210.9,97.0L209.3,96.8L207.9,96.1L206.9,95.0L206.3,93.7L205.8,92.2L205.8,90.6L206.6,89.2L207.4,88.3L207.4,88.3L206.4,89.0L205.2,90.4L204.7,92.2L204.8,94.1L205.6,95.9L207.1,97.3L209.0,97.9L210.9,98.0L212.8,97.9L214.9,97.4L216.9,96.1L218.1,94.0L218.2,91.7L217.7,89.6L216.7,87.7L215.4,86.3L214.2,84.8L214.4,85.1L214.5,85.5L214.3,85.9L214.0,86.2L213.7,86.3L213.3,86.3Z"/><path d="M236.2,84.5L234.5,83.8L232.7,83.3L230.7,83.2L228.7,83.5L226.9,84.0L225.0,84.4L223.1,85.1L221.3,86.3L220.1,88.0L219.4,90.1L219.5,92.3L219.9,94.2L220.5,96.1L221.3,97.9L222.4,99.6L224.1,101.0L226.1,101.6L228.2,101.4L230.0,100.8L231.6,99.8L233.0,98.7L233.9,97.1L234.6,95.4L234.6,95.3L234.6,95.3L234.3,95.3L233.6,96.9L232.7,98.4L231.3,99.4L229.8,100.1L228.1,100.2L226.5,99.8L225.0,99.2L223.6,98.3L222.4,97.2L221.5,95.7L221.1,94.0L221.3,92.3L221.8,90.8L222.7,89.5L223.6,88.3L224.5,87.1L225.8,86.1L227.3,85.3L228.9,85.1L230.4,85.4L231.8,86.2L233.3,87.0L235.1,87.5L234.5,87.1L234.1,86.5L234.0,85.8L234.3,85.1L234.8,84.6L235.5,84.4Z"/><path d="M227.4,93.0L228.9,92.1L230.6,91.4L232.2,91.0L233.7,90.8L235.2,90.8L236.7,90.8L238.4,91.1L239.9,91.7L241.2,92.9L242.1,94.4L242.6,95.9L242.7,97.5L242.8,99.0L242.7,100.6L242.3,102.2L241.4,103.6L240.2,104.8L238.8,105.5L237.2,105.9L235.6,106.1L234.0,105.8L232.5,105.3L231.1,104.3L230.1,102.9L229.4,102.0L229.4,102.0L230.0,102.9L230.9,104.5L232.1,105.9L233.7,106.9L235.5,107.3L237.4,107.1L239.2,106.4L240.7,105.4L242.1,104.3L243.5,102.9L244.7,101.3L245.4,99.3L245.4,97.2L244.7,95.2L243.5,93.5L242.2,92.0L240.8,90.6L239.3,89.3L237.5,88.1L235.5,87.5L233.2,87.6L231.2,88.5L229.7,89.7L228.2,90.9L226.6,91.7L227.0,91.6L227.3,91.6L227.6,91.8L227.7,92.1L227.8,92.5L227.6,92.8Z"/><path d="M248.8,95.3L246.9,95.2L245.1,94.9L243.2,94.5L241.0,94.3L238.9,94.7L237.0,95.8L235.6,97.5L234.8,99.6L234.5,101.6L234.3,103.5L234.4,105.4L234.7,107.4L235.6,109.1L237.1,110.5L238.8,111.3L240.7,111.7L242.6,111.8L244.4,111.5L246.1,110.7L247.5,109.4L248.3,107.7L248.6,105.9L248.6,105.6L248.6,105.6L248.4,105.8L247.7,107.5L246.9,108.9L245.6,110.0L244.2,110.8L242.5,111.1L240.9,110.8L239.5,110.0L238.5,108.9L237.6,107.7L236.8,106.4L236.0,105.0L235.6,103.5L235.8,101.8L236.6,100.4L237.7,99.2L239.0,98.4L240.2,97.5L241.6,96.7L243.1,96.1L244.8,96.3L246.4,97.0L248.0,97.9L247.5,97.6L247.2,97.1L247.1,96.5L247.2,96.0L247.6,95.5L248.2,95.3Z"/><path d="M241.7,100.3L243.3,99.4L244.9,98.6L246.5,98.0L248.1,97.7L249.6,97.7L251.2,97.6L252.8,97.6L254.5,97.9L256.0,98.6L257.3,99.8L258.1,101.3L258.7,102.9L259.0,104.4L259.1,106.0L259.3,107.6L259.3,109.2L259.0,110.8L258.2,112.3L257.0,113.5L255.6,114.4L254.0,114.8L252.4,115.1L250.8,115.2L249.2,115.0L247.6,114.5L246.2,113.5L245.2,112.1L244.2,110.6L244.1,110.7L244.1,110.7L244.1,110.7L245.0,112.3L246.0,113.8L247.3,115.0L248.9,115.9L250.7,116.5L252.6,116.6L254.4,116.2L256.1,115.4L257.6,114.3L258.9,112.9L260.0,111.4L261.0,109.7L261.7,107.8L261.9,105.8L261.6,103.8L260.8,102.0L259.6,100.4L258.3,98.9L256.9,97.6L255.3,96.3L253.5,95.2L251.5,94.5L249.4,94.3L247.3,94.7L245.5,95.8L244.0,97.0L242.5,98.1L241.0,99.0L241.3,98.9L241.6,98.9L241.9,99.1L242.1,99.4L242.1,99.8L242.0,100.1Z"/><path d="M271.0,116.9L270.3,115.2L269.4,113.5L268.2,111.9L266.9,110.5L265.3,109.3L263.6,108.4L261.9,107.6L260.0,107.0L258.1,106.8L256.1,107.0L254.3,107.6L252.5,108.6L251.1,110.0L250.0,111.6L249.1,113.4L248.6,115.2L248.4,117.1L248.5,119.1L249.1,121.0L250.1,122.7L251.4,124.1L253.1,125.1L255.0,125.7L256.9,125.8L258.8,125.2L260.4,124.4L261.0,124.0L261.0,124.0L260.3,124.3L258.7,124.9L256.9,125.2L255.2,124.8L253.7,124.1L252.3,123.1L251.2,121.8L250.2,120.4L249.6,118.9L249.4,117.2L249.6,115.4L250.2,113.9L251.3,112.6L252.6,111.6L253.9,110.8L255.3,110.3L256.8,109.9L258.3,109.6L259.8,109.3L261.4,109.4L263.0,109.8L264.5,110.5L265.7,111.6L266.5,113.0L266.9,114.6L267.3,116.3L267.8,118.0L267.7,117.3L268.0,116.6L268.5,116.0L269.2,115.8L270.0,115.8L270.6,116.2Z"/><path d="M265.9,135.7L266.4,137.4L266.2,139.1L265.6,140.3L264.9,141.4L264.1,142.6L262.8,143.5L261.3,143.6L260.0,143.0L258.9,142.2L257.9,141.3L256.9,140.1L256.6,138.5L257.2,137.0L258.5,135.9L260.1,135.3L260.5,135.1L260.5,135.1L260.0,134.9L258.1,135.2L256.6,136.5L256.0,138.4L255.9,140.3L256.3,142.2L257.3,144.0L259.1,145.1L261.2,145.1L263.1,144.7L265.1,144.4L267.2,143.5L268.6,141.5L268.7,139.1L267.9,137.1L267.5,135.3L267.5,135.7L267.3,136.0L267.1,136.2L266.7,136.3L266.4,136.3L266.1,136.0Z"/><path d="M270.0,152.8L269.0,154.3L267.7,155.5L266.2,155.8L264.6,155.5L263.2,155.1L261.8,154.7L260.4,154.1L259.3,153.0L258.9,151.4L259.1,149.8L259.8,148.4L260.6,147.2L261.6,146.3L263.0,145.6L264.6,145.4L266.1,145.9L267.4,147.1L267.8,147.3L267.8,147.3L267.6,146.9L266.3,145.7L264.7,144.9L262.9,144.5L260.9,144.8L259.1,145.9L258.1,147.6L257.7,149.5L257.8,151.4L258.0,153.5L258.8,155.5L260.3,157.2L262.4,158.3L264.5,158.4L266.7,157.8L268.5,156.7L270.0,155.4L271.5,154.4L271.1,154.7L270.7,154.7L270.2,154.5L269.9,154.2L269.7,153.7L269.8,153.2Z"/><path d="M267.1,156.3L268.8,156.9L270.3,157.8L271.3,159.0L271.7,160.5L271.7,162.1L271.9,163.6L272.1,165.0L272.0,166.6L271.5,168.2L270.4,169.3L268.9,170.0L267.5,170.4L266.0,170.5L264.5,170.6L262.8,170.5L261.3,169.8L260.1,168.6L259.3,167.1L259.0,165.4L259.2,163.6L260.0,162.0L260.8,160.8L260.8,160.8L259.7,161.8L258.6,163.4L258.2,165.4L258.6,167.3L259.6,169.0L260.8,170.4L262.3,171.6L264.1,172.5L266.1,172.9L268.1,172.6L269.8,171.6L271.3,170.3L272.5,168.9L273.6,167.3L274.6,165.5L275.1,163.5L274.9,161.5L274.0,159.6L272.7,158.0L271.2,156.7L269.8,155.4L268.4,154.1L268.8,154.5L269.0,155.0L268.9,155.6L268.7,156.1L268.2,156.4L267.6,156.5Z"/><path d="M271.4,171.9L269.8,172.9L268.4,173.8L266.9,174.2L265.3,174.0L263.8,173.4L262.5,172.4L261.5,171.2L260.8,169.9L260.6,168.5L260.6,167.0L260.9,165.5L261.6,164.0L262.7,162.8L264.2,162.1L265.9,162.0L267.5,162.5L268.9,163.4L269.9,164.8L270.6,165.7L270.6,165.7L270.1,164.6L269.2,163.1L267.7,162.1L266.0,161.4L264.1,161.4L262.2,161.9L260.5,163.0L259.1,164.5L258.1,166.5L257.8,168.6L258.2,170.9L259.5,172.9L261.2,174.2L263.1,175.0L265.0,175.4L266.9,175.6L268.9,175.3L270.7,174.8L272.4,174.3L271.9,174.4L271.3,174.2L270.9,173.9L270.6,173.4L270.7,172.8L270.9,172.3Z"/><path d="M257.3,180.8L258.6,182.4L260.4,183.7L262.5,184.2L264.6,184.3L266.6,184.2L268.6,183.6L270.5,182.3L271.5,180.3L271.6,178.2L270.9,176.3L270.0,174.7L268.8,173.4L267.2,172.3L265.2,172.0L263.4,172.8L262.1,174.2L262.2,174.4L262.2,174.4L262.3,174.5L263.8,173.5L265.3,173.0L266.9,173.2L268.3,174.0L269.2,175.2L269.5,176.7L269.4,178.1L268.9,179.4L268.3,180.6L267.4,181.7L266.1,182.6L264.6,182.9L263.0,182.6L261.8,181.6L261.0,180.3L260.1,178.9L260.4,179.6L260.4,180.3L260.0,181.0L259.4,181.4L258.6,181.5L257.9,181.3Z"/><path d="M261.3,182.2L259.7,183.1L258.0,184.0L256.3,185.1L254.8,186.7L253.7,188.6L253.4,190.9L254.1,193.0L255.3,194.8L256.8,196.0L258.4,197.0L260.1,197.8L261.9,198.3L263.9,198.3L265.8,197.5L267.2,196.1L268.0,194.3L268.2,192.3L267.8,190.5L266.9,188.9L266.8,188.9L266.8,188.9L266.8,189.0L267.5,190.6L267.6,192.3L267.0,193.9L266.0,195.1L264.8,196.0L263.5,196.6L262.0,196.8L260.4,196.7L259.0,196.0L257.8,195.0L257.1,193.6L256.7,192.1L256.6,190.7L256.7,189.3L257.0,187.8L257.6,186.4L258.8,185.2L260.3,184.5L262.0,184.0L261.6,184.1L261.2,184.0L260.8,183.7L260.6,183.3L260.7,182.8L260.9,182.4Z"/><path d="M154.4,146.9L155.4,148.4L156.3,149.8L157.0,151.0L157.6,152.4L157.7,154.0L157.1,155.6L156.0,156.8L154.6,157.6L153.2,157.9L151.8,158.1L150.2,158.0L148.8,157.4L147.6,156.4L146.9,154.9L146.7,153.3L146.9,151.8L147.9,150.4L148.6,149.5L148.6,149.5L147.7,150.1L146.3,151.5L145.8,153.3L146.2,155.2L147.1,156.7L148.2,158.1L149.6,159.3L151.5,160.2L153.7,160.3L155.6,159.4L157.0,157.8L158.1,156.2L159.1,154.4L159.8,152.4L159.8,150.1L158.8,148.0L157.2,146.7L155.6,145.7L155.8,146.0L155.8,146.4L155.7,146.7L155.4,147.0L155.1,147.1L154.7,147.1Z"/><path d="M152.4,146.6L150.9,147.7L149.3,148.6L147.7,149.7L146.3,151.3L145.3,153.1L144.9,155.3L145.5,157.5L146.7,159.4L148.3,160.8L150.1,161.7L152.0,162.3L153.9,162.4L155.9,162.1L157.6,161.1L158.8,159.5L159.3,157.6L159.3,155.8L158.6,154.1L158.0,152.9L158.0,152.9L158.4,154.2L158.9,155.8L158.6,157.5L157.8,158.9L156.6,159.9L155.3,160.7L153.8,161.2L152.1,161.3L150.5,160.8L149.1,159.8L148.2,158.4L147.9,156.8L147.8,155.3L148.0,153.9L148.4,152.3L149.0,150.9L150.1,149.7L151.6,148.9L153.3,148.2L152.9,148.3L152.5,148.3L152.1,148.0L151.9,147.7L151.9,147.3L152.1,146.9Z"/><path d="M168.6,141.9L169.5,140.2L170.3,138.5L170.9,136.6L171.0,134.5L170.6,132.5L169.8,130.6L168.4,129.0L166.8,127.9L164.9,127.2L162.9,127.1L161.0,127.4L159.2,128.2L157.7,129.3L156.5,130.7L155.7,132.4L155.3,134.3L155.5,136.2L156.4,138.0L157.9,139.2L159.6,139.9L159.9,139.8L159.9,139.8L159.7,139.7L158.2,138.7L157.1,137.5L156.5,135.9L156.2,134.3L156.5,132.7L157.1,131.2L158.2,129.9L159.6,129.1L161.2,128.8L162.8,129.0L164.2,129.5L165.4,130.2L166.6,131.1L167.6,132.1L168.5,133.4L169.2,134.8L169.5,136.4L169.1,138.0L168.3,139.5L167.2,140.9L167.5,140.6L167.8,140.5L168.2,140.6L168.5,140.8L168.7,141.1L168.8,141.5Z"/><path d="M163.5,133.9L163.5,132.1L163.4,130.4L163.4,128.9L163.8,127.6L164.4,126.2L165.2,124.8L166.4,123.7L167.8,122.8L169.4,122.3L171.2,122.3L172.8,122.8L174.2,123.8L175.2,125.1L175.9,126.5L176.2,128.1L176.2,129.6L176.0,131.1L175.3,132.5L174.3,133.8L172.9,134.6L171.1,135.0L171.0,135.2L171.0,135.2L171.2,135.2L173.0,134.9L174.7,134.3L176.1,133.1L177.2,131.6L177.7,129.8L177.8,127.9L177.4,126.0L176.4,124.3L175.0,122.8L173.2,121.8L171.3,121.3L169.3,121.1L167.3,121.4L165.4,122.1L163.6,123.2L162.2,124.6L161.0,126.4L160.3,128.5L160.4,130.6L160.9,132.5L161.4,134.3L161.4,133.8L161.6,133.3L162.0,133.1L162.5,133.0L163.0,133.1L163.4,133.4Z"/><path d="M175.1,125.2L176.7,124.6L178.3,124.1L179.9,124.3L181.4,125.1L182.4,126.4L182.9,127.9L183.0,129.3L182.6,130.7L182.1,132.0L181.3,133.3L180.1,134.3L178.6,134.8L177.0,134.5L175.7,133.6L174.7,132.4L174.2,130.7L174.0,130.4L174.0,130.4L173.9,130.8L174.2,132.6L175.3,134.0L176.8,135.1L178.6,135.5L180.5,135.3L182.3,134.5L183.8,133.3L185.0,131.6L185.5,129.4L185.0,127.2L183.8,125.4L182.1,124.1L180.4,123.1L178.4,122.5L176.4,122.4L174.5,122.5L175.1,122.5L175.7,122.8L176.0,123.3L176.2,123.9L176.0,124.5L175.6,125.0Z"/><path d="M195.6,125.7L193.9,126.3L192.5,127.2L191.2,128.1L189.6,128.4L188.0,127.9L186.8,126.8L185.9,125.7L184.9,124.5L184.2,123.0L184.3,121.3L185.1,119.9L186.0,118.8L187.1,117.8L188.6,117.0L190.2,116.9L191.8,117.4L193.1,118.5L194.1,119.6L194.1,119.6L193.3,118.2L192.0,117.0L190.3,116.5L188.5,116.4L186.6,116.6L184.8,117.4L183.6,119.1L183.2,121.1L183.2,123.0L183.1,125.1L183.7,127.2L185.3,128.9L187.5,129.5L189.5,129.7L191.5,130.0L193.7,129.9L195.5,128.9L196.7,127.4L196.3,127.6L195.8,127.6L195.4,127.3L195.2,127.0L195.1,126.5L195.2,126.1Z"/><path d="M201.4,120.3L200.2,121.7L198.9,123.0L197.6,123.9L196.1,124.3L194.5,124.2L192.9,123.9L191.5,123.4L190.2,122.6L189.0,121.8L187.8,120.7L187.0,119.3L186.5,117.6L186.6,115.9L187.2,114.3L188.2,112.9L189.5,111.8L191.0,111.0L192.6,110.6L194.3,110.7L196.0,111.3L197.3,112.4L198.3,113.4L198.3,113.4L197.4,112.3L196.2,110.9L194.5,110.0L192.6,109.6L190.6,109.8L188.8,110.7L187.3,112.1L186.4,113.9L185.8,115.7L185.5,117.6L185.6,119.6L186.1,121.6L187.1,123.5L188.7,124.9L190.5,125.9L192.5,126.2L194.5,126.1L196.4,125.7L198.1,125.1L199.8,124.2L201.4,123.2L203.0,122.3L202.4,122.6L201.9,122.6L201.4,122.3L201.0,121.9L200.9,121.3L201.0,120.8Z"/><path d="M204.3,122.8L202.7,122.1L201.4,121.0L200.9,119.6L200.8,118.0L201.0,116.6L201.4,115.3L202.0,114.0L203.0,113.0L204.5,112.4L206.0,112.5L207.5,113.1L208.6,114.1L209.4,115.5L209.6,117.0L208.9,118.6L208.7,119.3L208.7,119.3L209.3,118.8L210.3,117.2L210.3,115.2L209.4,113.4L207.9,112.3L206.2,111.7L204.4,111.4L202.5,111.6L200.5,112.4L199.0,114.0L198.2,116.1L198.2,118.3L199.0,120.3L200.3,122.1L202.1,123.2L203.7,124.1L203.4,123.9L203.3,123.6L203.3,123.3L203.4,123.0L203.7,122.7L204.0,122.7Z"/><path d="M214.9,122.3L216.2,121.0L217.5,119.8L218.8,118.2L219.6,116.2L219.7,114.1L219.4,112.0L218.7,110.1L217.6,108.3L216.4,106.8L215.0,105.4L213.3,104.3L211.5,103.5L209.5,103.2L207.4,103.4L205.6,104.2L204.0,105.4L202.8,107.0L202.0,108.7L201.5,110.4L201.4,112.2L201.7,114.0L202.4,115.6L203.6,116.9L205.1,118.0L205.1,118.0L205.1,118.0L205.2,117.8L204.0,116.6L202.9,115.3L202.2,113.8L201.9,112.2L202.0,110.5L202.6,109.0L203.6,107.6L204.9,106.6L206.4,105.9L207.9,105.6L209.4,105.5L211.0,105.6L212.6,105.9L214.2,106.6L215.5,107.6L216.6,109.0L217.2,110.6L217.3,112.3L217.1,113.9L216.7,115.4L216.1,116.7L215.2,118.1L214.3,119.6L213.4,121.2L213.7,121.0L214.1,120.9L214.5,120.9L214.8,121.2L215.0,121.5L215.0,121.9Z"/><path d="M223.2,127.6L221.5,127.0L219.9,126.6L218.4,126.1L217.2,125.0L216.4,123.6L216.0,122.1L216.0,120.5L216.3,118.9L216.8,117.5L217.6,116.2L218.7,115.0L220.1,114.1L221.7,113.6L223.5,113.7L225.1,114.3L226.4,115.4L227.4,116.8L227.9,118.3L228.0,120.0L227.5,121.7L227.5,122.4L227.5,122.4L227.7,121.8L228.5,120.1L228.8,118.2L228.3,116.3L227.1,114.7L225.5,113.6L223.6,113.0L221.7,112.7L219.7,112.8L217.7,113.4L215.9,114.6L214.5,116.3L213.9,118.4L214.0,120.5L214.5,122.4L215.3,124.2L216.1,125.8L217.2,127.5L218.7,128.8L220.4,129.8L222.0,130.5L221.5,130.1L221.1,129.5L221.1,128.8L221.3,128.2L221.9,127.7L222.5,127.5Z"/><path d="M228.2,126.7L228.3,125.0L228.2,123.7L228.3,122.3L229.2,121.0L230.7,120.6L232.0,121.1L233.2,121.8L234.4,123.0L234.6,124.6L233.7,125.9L232.2,126.6L231.7,127.1L231.7,127.1L232.4,127.1L234.1,126.4L235.2,124.8L235.4,122.7L234.7,120.6L232.9,119.0L230.5,118.8L228.5,120.0L227.0,121.4L225.6,123.0L225.2,125.2L225.9,127.1L225.9,126.5L226.2,126.1L226.6,125.8L227.1,125.7L227.6,125.8L228.0,126.2Z"/><path d="M246.8,138.2L245.5,139.4L244.4,140.5L243.2,141.2L241.7,141.6L240.1,141.6L238.5,141.1L237.1,140.1L236.2,138.7L235.9,137.1L236.1,135.5L236.7,134.1L237.5,132.9L238.6,131.9L239.9,131.1L241.5,130.9L243.1,131.3L244.4,132.5L244.9,132.9L244.9,132.9L244.5,132.3L243.3,131.0L241.6,130.1L239.7,130.0L237.8,130.6L236.3,131.7L235.1,133.3L234.4,135.2L234.4,137.2L235.1,139.2L236.3,140.9L237.8,142.1L239.6,143.1L241.6,143.6L243.8,143.7L246.0,143.0L247.6,141.7L248.9,140.4L248.3,140.8L247.7,140.8L247.0,140.6L246.6,140.1L246.4,139.4L246.5,138.8Z"/><path d="M241.1,150.3L242.4,148.9L243.8,147.6L244.9,145.7L245.4,143.6L245.2,141.4L244.2,139.4L242.5,138.0L240.4,137.4L238.2,137.7L236.5,138.8L235.4,140.3L234.8,142.0L234.8,143.8L235.7,145.4L236.0,145.6L236.0,145.6L236.0,145.2L235.3,143.7L235.3,142.1L235.9,140.7L237.0,139.5L238.5,139.1L240.0,139.4L241.2,140.1L242.3,141.1L243.2,142.2L243.8,143.7L243.7,145.3L242.8,146.7L241.3,147.4L239.7,148.2L240.2,148.0L240.7,148.0L241.2,148.3L241.6,148.7L241.6,149.3L241.5,149.8Z"/><path d="M175.8,97.0L177.4,96.2L178.8,95.2L180.3,94.5L181.9,94.7L183.3,95.4L184.4,96.4L185.4,97.4L186.5,98.5L187.5,99.8L187.9,101.4L187.7,103.1L186.9,104.5L186.0,105.7L184.8,106.9L183.3,107.7L181.6,108.0L179.9,107.6L178.4,106.7L177.3,105.3L176.5,103.7L176.4,103.6L176.4,103.6L176.2,103.8L176.8,105.6L178.0,107.2L179.7,108.1L181.5,108.5L183.5,108.6L185.5,108.3L187.4,107.1L188.6,105.3L189.0,103.3L188.9,101.3L188.7,99.4L188.4,97.5L187.6,95.7L186.1,94.2L184.1,93.5L182.1,93.3L180.2,93.2L178.3,93.3L176.3,93.5L174.6,94.1L175.3,94.0L176.0,94.2L176.5,94.7L176.7,95.3L176.7,96.0L176.3,96.6Z"/><path d="M186.8,108.3L188.1,109.7L189.5,111.1L191.3,112.1L193.5,112.4L195.6,111.2L196.6,109.1L196.8,107.0L196.4,105.0L194.9,103.3L192.7,103.1L191.0,104.2L190.8,104.5L190.8,104.5L191.2,104.6L192.8,104.1L194.3,104.4L195.5,105.5L196.0,107.1L195.4,108.6L194.2,109.4L193.0,109.6L191.7,109.7L190.3,109.7L189.1,108.8L188.4,107.2L188.6,107.6L188.5,108.1L188.3,108.4L188.0,108.7L187.5,108.8L187.1,108.6Z"/><path d="M191.8,106.2L193.4,107.1L195.1,108.0L196.9,108.8L198.9,109.2L200.9,109.3L202.9,109.0L204.6,108.0L205.9,106.6L206.9,104.8L207.4,102.9L207.6,101.0L207.4,99.1L206.7,97.2L205.5,95.6L203.7,94.6L201.6,94.2L199.7,94.6L198.0,95.5L196.7,96.8L196.1,97.8L196.1,97.8L196.9,97.0L198.1,95.7L199.8,95.0L201.6,95.0L203.1,95.7L204.3,96.8L205.3,98.1L206.0,99.5L206.5,101.0L206.4,102.7L205.6,104.1L204.3,105.0L203.0,105.7L201.7,106.5L200.4,107.2L198.9,107.7L197.3,107.6L196.0,106.6L195.0,105.2L193.8,103.9L194.2,104.4L194.3,105.1L194.2,105.7L193.7,106.2L193.1,106.5L192.4,106.5Z"/><path d="M210.2,96.8L211.9,97.2L213.4,97.6L214.8,98.1L216.0,99.1L217.0,100.3L217.6,101.8L217.9,103.4L217.7,105.0L217.1,106.5L216.2,107.7L215.0,108.6L213.7,109.3L212.3,109.8L210.7,110.1L209.1,110.0L207.6,109.4L206.3,108.2L205.5,106.6L205.4,104.8L205.8,103.1L206.0,102.3L206.0,102.3L205.7,103.0L205.1,104.8L205.1,106.7L205.8,108.5L207.0,110.0L208.7,111.1L210.6,111.7L212.6,111.8L214.5,111.3L216.2,110.3L217.6,108.9L218.6,107.2L219.0,105.3L219.1,103.4L218.9,101.5L218.4,99.7L217.6,97.9L216.4,96.1L214.6,94.9L212.7,94.2L210.8,93.9L211.4,94.1L211.9,94.7L212.0,95.3L211.9,96.0L211.5,96.5L210.9,96.8Z"/><path d="M208.2,114.6L209.6,115.8L211.1,116.9L212.8,117.9L214.7,118.5L216.6,118.7L218.6,118.6L220.6,118.1L222.5,117.0L223.9,115.5L225.0,113.7L225.4,111.7L225.4,109.7L225.1,107.9L224.3,106.2L223.2,104.6L221.8,103.4L220.2,102.5L218.4,102.0L216.5,102.2L214.7,102.8L213.3,104.0L212.3,105.5L212.2,105.7L212.2,105.7L212.4,105.6L213.6,104.3L215.0,103.2L216.6,102.6L218.3,102.6L220.0,103.1L221.4,104.0L222.4,105.3L223.0,106.7L223.4,108.3L223.3,109.8L223.1,111.3L222.6,112.7L221.8,113.9L220.8,115.1L219.6,116.0L218.2,116.7L216.6,117.0L214.9,117.1L213.3,116.7L211.8,115.8L210.5,114.7L209.3,113.4L209.5,113.7L209.6,114.1L209.5,114.4L209.2,114.7L208.9,114.8L208.5,114.8Z"/><path d="M153.1,123.0L151.2,121.7L150.3,120.0L149.2,118.5L149.4,116.6L150.0,114.9L150.0,114.9L149.1,116.5L148.0,118.6L148.7,120.9L150.2,122.3L150.3,124.5L150.1,123.9L150.2,123.2L150.6,122.6L151.2,122.2L151.9,122.2L152.6,122.4Z"/><path d="M157.0,118.4L155.5,116.9L154.9,115.1L155.2,112.9L154.5,110.6L152.4,109.0L149.9,109.2L148.0,110.3L146.5,111.7L145.0,113.0L143.5,114.3L143.1,114.4L143.1,114.4L143.5,114.4L145.3,113.4L147.1,112.5L148.6,111.0L150.1,109.9L151.9,110.1L152.5,111.7L152.9,113.3L153.5,115.3L153.7,117.4L153.5,119.6L153.5,118.8L153.7,118.0L154.3,117.5L155.1,117.2L155.9,117.3L156.6,117.7Z"/><path d="M162.1,114.0L162.1,111.9L161.5,109.9L160.3,108.1L159.2,106.4L158.6,104.4L157.8,102.5L156.2,101.0L154.0,101.2L152.2,102.1L150.5,103.2L148.9,104.5L147.5,106.0L146.2,107.5L145.0,109.1L144.1,110.3L144.1,110.3L145.1,109.2L146.4,107.7L147.8,106.3L149.5,105.3L151.2,104.2L152.7,102.9L154.2,101.9L155.5,102.2L156.0,103.7L157.0,105.2L158.3,106.8L159.0,108.7L159.2,110.6L159.6,112.5L160.5,114.4L160.5,114.0L160.7,113.7L160.9,113.5L161.3,113.4L161.6,113.4L161.9,113.7Z"/><path d="M169.4,108.6L170.5,107.0L171.6,105.2L172.6,103.4L174.2,101.8L173.1,99.6L171.0,98.7L168.9,98.4L166.8,98.5L165.2,98.2L165.2,98.2L166.8,98.7L168.8,99.0L170.6,99.8L172.2,100.7L173.1,101.6L171.8,102.7L170.4,104.0L168.5,104.9L166.8,106.0L167.5,105.6L168.3,105.5L169.1,105.8L169.6,106.4L169.9,107.1L169.8,107.9Z"/><path d="M171.6,105.0L170.4,103.7L170.3,102.2L171.2,100.5L171.2,100.5L169.3,101.6L168.3,104.1L169.4,106.3L169.2,105.8L169.3,105.2L169.6,104.7L170.1,104.4L170.6,104.4L171.2,104.6Z"/><path d="M180.2,100.3L179.2,98.4L177.9,96.7L176.8,95.1L175.5,93.5L175.2,93.7L175.2,93.7L175.2,93.7L175.6,95.8L176.8,97.4L177.7,99.1L178.0,101.0L177.9,100.5L178.1,100.0L178.5,99.7L179.0,99.5L179.5,99.6L179.9,99.9Z"/><path d="M184.4,99.6L185.7,98.0L187.4,97.1L189.3,96.5L191.2,95.8L192.9,94.5L194.3,92.8L195.7,91.1L196.8,89.0L196.0,86.6L194.4,84.9L192.5,84.0L190.5,83.3L188.7,82.5L187.0,81.5L185.3,80.4L183.6,79.4L183.2,79.1L183.2,79.1L183.5,79.5L185.2,80.6L186.9,81.7L188.5,82.8L190.2,83.9L191.9,85.0L193.5,86.1L194.9,87.3L195.8,88.9L194.9,90.5L193.3,91.6L191.5,92.4L189.8,93.1L188.1,94.1L186.4,95.4L184.7,96.6L182.8,97.5L183.3,97.3L183.9,97.3L184.4,97.5L184.8,98.0L184.9,98.5L184.8,99.1Z"/><path d="M189.7,98.0L189.9,96.4L190.3,94.8L191.8,93.6L191.6,93.0L191.6,93.0L191.3,93.0L189.7,94.2L187.2,95.4L187.6,98.1L187.7,97.6L188.0,97.2L188.4,97.0L188.8,97.0L189.3,97.2L189.6,97.5Z"/><path d="M198.9,96.1L198.8,94.3L198.6,92.3L198.0,90.2L197.6,88.2L197.3,85.9L195.9,84.1L194.2,82.9L192.7,81.6L191.3,80.3L190.2,78.9L190.2,78.9L191.1,80.4L192.4,81.9L193.5,83.6L194.8,85.2L196.1,86.5L196.7,88.3L196.7,90.3L196.2,92.2L195.5,94.3L195.9,96.5L196.0,95.8L196.3,95.2L196.9,94.9L197.5,94.8L198.2,95.0L198.6,95.5Z"/><path d="M203.7,97.3L204.7,95.5L204.6,93.5L204.6,91.4L205.0,89.2L204.3,87.1L203.1,85.4L203.1,85.0L203.1,85.0L203.0,85.5L203.5,87.4L203.7,89.3L203.7,91.2L202.5,92.9L201.3,94.7L201.6,96.9L201.8,96.5L202.1,96.1L202.6,96.0L203.1,96.1L203.4,96.4L203.7,96.8Z"/><path d="M214.4,99.0L213.6,97.0L213.7,95.1L215.1,93.9L216.4,92.3L216.1,92.0L216.1,92.0L216.0,92.0L214.1,92.8L212.8,94.6L211.8,96.6L210.6,98.6L210.8,97.8L211.4,97.2L212.3,96.9L213.1,97.0L213.9,97.4L214.3,98.2Z"/><path d="M221.9,102.4L221.7,100.1L222.5,98.3L224.1,96.5L223.4,94.1L222.7,92.1L222.6,91.4L222.6,91.4L222.4,92.2L222.7,94.2L222.3,95.9L221.3,97.5L220.0,99.1L218.1,100.5L218.6,99.7L219.5,99.3L220.5,99.3L221.3,99.7L221.9,100.5L222.1,101.4Z"/><path d="M224.6,102.3L225.5,100.3L227.2,99.5L229.0,98.2L229.9,96.2L230.6,95.2L230.6,95.2L229.7,96.0L228.3,97.3L226.2,97.7L224.7,99.3L222.5,99.7L223.2,99.4L223.9,99.4L224.6,99.7L225.0,100.3L225.2,101.0L225.0,101.8Z"/><path d="M228.3,104.4L229.9,103.4L231.9,102.9L233.3,101.3L235.2,100.1L236.7,98.3L236.6,96.0L236.6,94.0L236.7,92.0L236.8,90.6L236.8,90.6L236.2,91.9L236.3,93.9L235.7,95.9L235.2,97.7L234.5,99.4L232.7,100.2L230.7,100.7L229.1,102.0L227.4,103.2L227.8,103.1L228.1,103.1L228.4,103.3L228.5,103.6L228.6,103.9L228.5,104.2Z"/><path d="M234.8,111.2L236.3,109.9L237.6,108.3L238.9,106.8L240.5,105.7L242.5,104.9L244.4,103.4L245.3,101.0L244.8,98.6L243.5,96.8L242.0,95.3L240.6,94.0L239.3,92.5L238.0,91.0L236.9,89.7L236.9,89.7L237.8,91.1L239.0,92.7L240.3,94.3L241.7,95.6L243.0,97.1L243.6,99.0L243.5,100.7L242.7,102.2L241.6,103.5L239.9,104.6L238.1,105.5L236.1,106.2L234.0,106.7L232.3,107.9L233.1,107.5L234.1,107.5L234.9,107.9L235.5,108.7L235.7,109.6L235.5,110.5Z"/><path d="M241.6,116.4L243.2,114.9L245.0,114.1L247.1,113.5L248.7,112.2L250.0,110.6L250.8,108.5L250.9,106.4L251.1,104.4L251.0,102.3L250.3,100.4L250.0,99.1L250.0,99.1L250.0,100.4L250.3,102.4L250.4,104.4L250.4,106.4L250.1,108.3L248.8,109.5L247.2,110.3L245.8,111.5L244.3,112.7L242.5,113.5L240.4,113.7L241.1,113.5L241.7,113.7L242.2,114.1L242.5,114.7L242.4,115.4L242.1,116.0Z"/><path d="M246.7,119.2L246.5,117.4L245.6,115.6L245.7,114.0L246.3,112.6L248.0,111.6L249.4,111.2L249.4,111.2L247.9,111.3L245.9,111.9L244.1,113.5L244.5,115.6L243.2,117.9L244.4,119.9L244.3,119.4L244.5,118.9L244.9,118.5L245.4,118.4L245.9,118.4L246.4,118.7Z"/><path d="M250.5,125.5L250.8,123.3L251.2,121.4L252.4,120.1L252.8,119.7L252.8,119.7L251.8,119.3L250.2,121.0L249.8,123.0L248.5,124.5L248.8,124.1L249.2,123.9L249.7,123.9L250.2,124.1L250.5,124.5L250.6,125.0Z"/><path d="M138.0,226.0L136.0,227.4L134.1,228.7L132.0,229.9L129.4,231.1L127.9,234.1L128.9,237.0L130.5,239.1L132.5,240.6L134.2,242.1L135.6,244.2L137.4,245.9L138.9,246.9L138.9,246.9L137.7,245.6L136.1,243.8L135.1,241.6L133.8,239.4L132.5,237.5L131.4,235.6L130.3,234.0L130.7,232.1L132.5,230.7L134.5,229.3L136.3,227.8L138.0,226.0Z"/><path d="M262.0,222.0L263.9,223.6L265.6,225.1L266.9,227.0L268.6,228.5L269.5,230.2L268.8,232.1L268.0,234.0L266.7,235.8L265.5,237.9L263.4,239.3L261.8,241.2L261.0,242.9L261.0,242.9L262.4,241.6L263.9,239.8L266.1,238.6L268.1,237.2L270.3,235.5L271.0,232.6L270.7,230.0L269.7,227.8L268.3,225.9L266.6,223.9L264.2,223.0L262.0,222.0Z"/><path d="M150.3,200.6L152.7,200.1L155.1,199.5L157.1,198.5L159.3,197.4L161.5,196.1L163.6,195.1L166.1,195.0L168.7,194.5L170.5,193.7L172.1,193.0L174.4,192.3L176.6,192.2L178.6,193.4L180.7,194.8L182.9,195.6L185.2,196.2L187.7,196.6L190.0,197.0L190.0,197.0L188.0,195.8L186.1,194.3L184.1,192.8L181.9,192.0L179.6,191.3L177.3,190.2L174.7,189.4L172.1,188.3L168.8,188.1L166.2,189.4L164.4,191.1L162.4,192.7L160.4,194.1L158.2,194.7L155.7,195.0L153.5,196.2L151.5,197.7L149.7,199.4L150.0,199.4L150.3,199.4L150.5,199.6L150.6,199.8L150.6,200.1L150.5,200.4Z"/><path d="M212.0,195.0L214.5,194.8L216.7,193.9L219.1,193.3L221.5,192.8L223.9,192.2L226.1,192.2L228.4,192.0L230.4,191.2L232.2,190.7L234.5,191.0L236.7,191.6L238.6,192.9L240.5,194.6L242.8,195.5L244.9,196.0L247.2,196.7L249.6,197.3L251.8,198.3L251.6,198.2L251.6,198.0L251.6,197.9L251.7,197.7L251.9,197.6L252.1,197.6L252.2,197.7L250.5,196.0L248.7,194.2L247.0,192.2L244.7,190.7L242.4,190.1L240.2,189.5L237.6,189.0L235.3,188.4L233.0,187.1L230.0,186.2L227.2,186.5L224.8,187.2L222.3,188.8L220.5,190.7L218.6,192.0L216.4,193.0L214.2,194.0L212.0,195.0Z"/><path d="M157.8,230.8L159.6,229.2L161.4,227.6L163.1,225.9L164.4,223.9L166.6,223.3L168.7,223.5L170.7,223.6L173.1,223.8L175.3,224.6L177.1,226.0L179.2,227.0L181.0,228.6L182.2,229.6L182.2,229.6L181.3,228.4L179.9,226.3L178.2,224.3L176.0,223.0L173.4,222.7L171.3,221.5L168.7,220.7L166.1,221.7L163.8,223.0L161.8,224.7L160.4,226.7L159.3,228.9L157.8,230.8Z"/><path d="M160.3,231.8L162.1,233.4L164.1,234.8L166.5,235.3L168.7,236.6L171.3,236.8L173.7,235.7L176.0,234.6L177.9,233.1L179.7,231.5L180.4,231.0L180.4,231.0L179.5,231.1L177.1,232.0L175.3,233.6L173.4,234.9L171.1,234.9L169.0,235.1L166.8,234.6L164.6,233.7L162.4,232.9L160.3,231.8Z"/><path d="M172.6,227.8L172.6,228.0L172.6,228.1L172.5,228.3L172.5,228.4L172.4,228.6L172.3,228.8L172.2,228.9L172.1,229.1L172.0,229.2L171.9,229.3L171.8,229.5L171.6,229.7L171.4,229.8L171.3,230.0L171.1,230.2L170.9,230.4L170.7,230.5L170.5,230.6L170.3,230.6L170.1,230.7L169.9,230.6L169.6,230.5L169.4,230.4L169.2,230.3L168.9,230.1L168.7,229.9L168.5,229.7L168.3,229.4L168.2,229.2L168.1,229.0L168.0,228.8L168.0,228.6L168.0,228.4L168.0,228.1L168.1,227.9L168.1,227.6L168.2,227.4L168.3,227.1L168.4,226.9L168.5,226.7L168.6,226.5L168.8,226.3L168.9,226.1L169.1,225.9L169.3,225.7L169.5,225.6L169.6,225.4L169.8,225.3L170.0,225.2L170.2,225.2L170.4,225.2L170.6,225.3L170.8,225.4L171.0,225.5L171.3,225.6L171.5,225.8L171.7,226.0L171.9,226.1L172.0,226.3L172.2,226.4L172.3,226.6L172.4,226.7L172.4,226.8L172.5,227.0L172.6,227.1L172.6,227.3L172.6,227.4L172.6,227.5L172.6,227.7Z"/><path d="M222.4,225.6L224.3,224.1L226.4,222.8L228.4,221.5L230.0,220.0L231.9,218.7L234.1,219.2L236.1,220.4L238.2,221.0L240.3,221.9L242.3,223.3L244.0,224.9L245.6,226.2L245.6,226.2L244.6,224.3L242.8,222.7L240.9,221.1L239.3,219.1L237.0,217.9L234.4,217.4L231.7,217.6L229.1,218.6L227.0,219.9L225.5,221.9L224.1,223.9L222.4,225.6Z"/><path d="M224.7,226.6L226.5,228.2L228.4,229.7L230.4,231.2L232.7,232.6L235.5,232.8L237.6,231.1L239.7,229.9L241.9,228.9L243.9,227.6L243.9,227.0L243.9,227.0L243.6,227.0L241.3,227.8L239.3,229.2L237.1,230.0L235.0,230.8L233.0,231.1L230.7,230.5L229.0,228.9L227.0,227.6L224.7,226.6Z"/><path d="M237.4,224.2L237.3,224.5L237.3,224.7L237.3,224.9L237.2,225.1L237.1,225.3L237.0,225.5L236.9,225.7L236.8,225.9L236.6,226.0L236.5,226.1L236.3,226.2L236.0,226.3L235.8,226.3L235.5,226.3L235.2,226.3L234.9,226.3L234.6,226.3L234.3,226.3L234.0,226.2L233.8,226.2L233.7,226.1L233.5,226.1L233.4,226.0L233.3,225.9L233.2,225.8L233.1,225.7L233.0,225.5L232.9,225.4L232.8,225.2L232.7,225.1L232.6,224.9L232.5,224.6L232.4,224.4L232.3,224.1L232.2,223.8L232.1,223.6L232.0,223.3L232.0,223.0L232.0,222.8L232.0,222.7L232.1,222.5L232.2,222.4L232.4,222.3L232.6,222.3L232.8,222.3L233.1,222.2L233.3,222.2L233.6,222.2L233.8,222.1L234.1,222.1L234.3,222.1L234.6,222.0L234.9,221.9L235.2,221.9L235.5,221.8L235.7,221.8L236.0,221.7L236.3,221.7L236.5,221.8L236.7,221.9L236.8,222.0L237.0,222.2L237.1,222.4L237.2,222.6L237.2,222.9L237.3,223.2L237.3,223.5L237.4,223.8L237.4,224.0Z"/><path d="M203.0,236.0L202.3,238.3L201.5,240.6L200.7,243.0L200.3,245.3L199.9,247.6L199.7,250.1L199.7,252.5L199.2,254.8L198.0,256.8L196.8,259.0L196.2,261.3L195.7,263.6L194.9,265.9L194.0,268.2L193.2,270.7L192.7,273.3L193.1,276.2L195.4,278.1L198.0,278.6L200.3,279.0L202.5,278.1L204.0,277.0L204.0,277.0L202.3,277.9L200.3,278.5L198.2,277.8L196.3,276.7L195.3,275.2L195.1,273.2L195.2,271.0L195.3,268.6L196.2,266.5L197.8,264.6L199.1,262.4L200.0,260.1L200.5,257.7L200.8,255.2L200.9,252.6L201.2,250.3L201.8,248.0L202.2,245.6L202.2,243.1L202.2,240.7L202.6,238.4L203.0,236.0Z"/><path d="M172.0,300.0L174.4,300.1L176.8,300.2L179.2,300.1L181.6,300.1L184.0,300.4L186.4,300.7L188.9,300.7L191.4,300.3L193.7,299.8L196.0,299.4L198.4,299.3L200.8,299.4L203.2,299.5L205.5,299.8L207.9,300.0L210.3,300.0L212.8,299.6L215.2,299.2L217.6,298.9L220.0,298.8L222.4,298.8L224.8,298.5L227.2,298.1L228.0,298.0L228.0,298.0L227.2,297.7L224.7,297.7L222.3,297.8L220.0,297.9L217.5,298.1L215.1,298.2L212.8,298.1L210.4,297.8L208.1,297.3L205.6,297.2L203.1,297.5L200.7,297.9L198.4,298.1L196.0,298.0L193.5,297.9L191.0,298.0L188.7,298.4L186.4,298.8L184.0,299.2L181.6,299.4L179.2,299.6L176.8,299.7L174.4,299.8L172.0,300.0Z"/><path d="M176.1,301.0L176.0,301.8L176.9,302.6L178.4,303.4L180.2,304.5L182.2,305.8L184.6,306.9L187.4,307.3L190.3,307.4L193.0,307.8L195.6,308.4L197.9,308.8L200.0,308.7L202.0,308.1L204.3,307.8L207.1,307.7L210.0,307.4L212.8,306.6L215.3,305.2L217.7,304.0L219.9,303.0L221.9,302.0L223.1,300.7L223.5,299.4L223.1,299.0L223.4,299.6L222.7,299.2L221.4,299.1L219.6,299.4L217.5,299.5L215.0,299.2L212.4,298.7L209.7,298.5L207.0,298.9L204.5,299.5L202.1,299.7L200.0,299.7L197.8,299.9L195.4,300.6L192.9,301.3L190.2,301.5L187.6,301.1L185.0,300.8L182.6,300.7L180.5,300.8L178.6,300.5L177.1,299.9L176.1,299.6Z"/><path d="M174.4,299.8L174.4,299.9L174.3,300.1L174.2,300.2L174.0,300.4L173.8,300.6L173.6,300.8L173.4,301.0L173.2,301.2L173.0,301.3L172.9,301.4L172.8,301.5L172.6,301.6L172.5,301.6L172.4,301.7L172.3,301.7L172.2,301.7L172.1,301.7L172.0,301.7L171.9,301.7L171.8,301.6L171.7,301.6L171.5,301.5L171.4,301.4L171.2,301.3L171.1,301.2L171.0,301.1L170.8,301.0L170.7,300.9L170.6,300.7L170.5,300.6L170.5,300.5L170.4,300.4L170.4,300.3L170.4,300.2L170.4,300.0L170.4,299.9L170.4,299.8L170.4,299.7L170.5,299.5L170.5,299.4L170.6,299.3L170.6,299.1L170.7,298.9L170.8,298.7L170.9,298.5L171.1,298.4L171.2,298.2L171.3,298.1L171.4,298.0L171.5,297.9L171.7,297.9L171.8,297.9L171.9,298.0L172.0,298.1L172.1,298.2L172.2,298.3L172.4,298.5L172.5,298.6L172.6,298.7L172.8,298.8L172.9,298.9L173.1,299.0L173.3,299.1L173.6,299.2L173.8,299.2L174.0,299.3L174.2,299.4L174.3,299.5L174.4,299.6Z"/><path d="M230.0,298.1L230.0,298.3L230.0,298.4L229.9,298.6L229.8,298.8L229.8,299.0L229.6,299.1L229.5,299.3L229.4,299.4L229.3,299.5L229.2,299.6L229.0,299.7L228.9,299.7L228.7,299.8L228.5,299.8L228.4,299.8L228.2,299.8L228.0,299.7L227.8,299.7L227.7,299.7L227.5,299.6L227.4,299.6L227.2,299.5L227.0,299.4L226.9,299.3L226.7,299.2L226.6,299.1L226.5,299.0L226.4,298.9L226.3,298.8L226.2,298.7L226.2,298.6L226.2,298.4L226.2,298.3L226.2,298.2L226.2,298.0L226.2,297.9L226.3,297.7L226.3,297.6L226.4,297.5L226.5,297.4L226.5,297.2L226.6,297.1L226.7,297.0L226.9,296.9L227.0,296.7L227.1,296.6L227.3,296.5L227.4,296.5L227.5,296.4L227.7,296.4L227.8,296.3L227.9,296.4L228.1,296.4L228.2,296.4L228.3,296.5L228.5,296.6L228.6,296.6L228.7,296.7L228.8,296.8L229.0,296.9L229.1,297.0L229.2,297.1L229.4,297.2L229.5,297.3L229.6,297.5L229.7,297.6L229.8,297.7L229.9,297.9L230.0,298.0Z"/><path d="M180.0,282.0L178.4,283.9L177.7,286.2L175.6,287.8L174.9,290.3L174.6,292.7L174.0,294.0L174.0,294.0L175.3,293.1L176.1,290.7L177.3,288.8L178.5,286.7L179.6,284.4L180.0,282.0Z"/><path d="M221.0,280.0L221.6,282.4L222.3,284.8L223.8,286.6L224.5,288.9L225.7,291.1L227.0,292.0L227.0,292.0L226.6,290.5L225.6,288.5L225.0,286.1L223.8,283.8L222.0,282.2L221.0,280.0Z"/><path d="M241.7,264.0L241.7,264.1L241.7,264.2L241.7,264.3L241.6,264.4L241.6,264.5L241.6,264.6L241.5,264.7L241.5,264.8L241.4,264.9L241.3,265.0L241.3,265.0L241.2,265.0L241.1,265.0L241.0,265.0L240.9,265.0L240.8,265.0L240.8,265.0L240.7,264.9L240.6,264.9L240.5,264.9L240.4,264.9L240.4,264.8L240.3,264.8L240.2,264.7L240.2,264.7L240.1,264.6L240.0,264.6L240.0,264.5L239.9,264.4L239.9,264.4L239.9,264.3L239.9,264.2L239.9,264.2L239.9,264.1L239.9,264.0L239.9,264.0L239.9,263.9L239.9,263.8L239.9,263.7L240.0,263.6L240.0,263.6L240.0,263.5L240.1,263.4L240.1,263.2L240.1,263.1L240.2,263.0L240.2,262.9L240.3,262.9L240.4,262.8L240.4,262.8L240.5,262.8L240.6,262.8L240.6,262.8L240.7,262.9L240.8,262.9L240.9,263.0L241.0,263.0L241.1,263.1L241.2,263.2L241.2,263.3L241.3,263.3L241.4,263.4L241.4,263.4L241.5,263.5L241.5,263.6L241.6,263.7L241.6,263.7L241.7,263.8L241.7,263.9Z"/><path d="M162.6,252.4L162.6,252.5L162.6,252.5L162.5,252.6L162.5,252.7L162.5,252.8L162.4,252.9L162.4,252.9L162.3,253.0L162.2,253.1L162.2,253.1L162.1,253.2L162.0,253.2L161.9,253.3L161.8,253.3L161.7,253.3L161.6,253.4L161.5,253.4L161.4,253.4L161.3,253.4L161.2,253.4L161.1,253.4L161.0,253.4L160.9,253.3L160.8,253.3L160.7,253.2L160.6,253.2L160.5,253.1L160.4,253.0L160.4,253.0L160.3,252.9L160.3,252.8L160.3,252.7L160.3,252.6L160.3,252.5L160.3,252.4L160.3,252.3L160.3,252.2L160.4,252.1L160.4,252.0L160.5,251.9L160.5,251.8L160.6,251.7L160.7,251.6L160.8,251.4L160.9,251.3L161.0,251.2L161.1,251.2L161.2,251.1L161.3,251.0L161.4,251.0L161.5,251.0L161.6,251.0L161.7,251.0L161.9,251.0L162.0,251.0L162.1,251.1L162.2,251.1L162.3,251.2L162.4,251.3L162.5,251.3L162.5,251.4L162.6,251.5L162.6,251.6L162.6,251.7L162.6,251.8L162.7,251.9L162.7,252.1L162.6,252.2L162.6,252.3Z"/><path d="M148.9,249.7L148.8,249.8L148.8,249.8L148.8,249.9L148.8,249.9L148.8,250.0L148.8,250.0L148.8,250.1L148.8,250.1L148.8,250.2L148.7,250.2L148.7,250.3L148.6,250.3L148.6,250.4L148.5,250.5L148.4,250.5L148.4,250.6L148.3,250.6L148.2,250.6L148.2,250.7L148.1,250.7L148.1,250.6L148.0,250.6L147.9,250.5L147.9,250.5L147.8,250.4L147.8,250.3L147.7,250.3L147.7,250.2L147.7,250.1L147.6,250.0L147.6,250.0L147.6,249.9L147.6,249.8L147.6,249.8L147.6,249.7L147.7,249.6L147.7,249.6L147.7,249.5L147.7,249.5L147.8,249.4L147.8,249.4L147.8,249.3L147.9,249.3L147.9,249.2L147.9,249.2L148.0,249.2L148.0,249.1L148.1,249.1L148.1,249.1L148.2,249.1L148.2,249.1L148.3,249.0L148.4,249.0L148.5,249.0L148.6,249.0L148.6,249.1L148.7,249.1L148.8,249.1L148.8,249.1L148.9,249.1L148.9,249.2L148.9,249.2L148.9,249.3L148.9,249.3L148.9,249.4L148.9,249.5L148.9,249.5L148.9,249.6L148.9,249.7Z"/><path d="M244.5,257.4L244.5,257.5L244.5,257.6L244.5,257.7L244.5,257.8L244.4,257.8L244.4,257.9L244.4,258.0L244.4,258.1L244.3,258.1L244.3,258.2L244.2,258.2L244.1,258.3L244.1,258.3L244.0,258.3L243.9,258.4L243.8,258.4L243.7,258.4L243.6,258.4L243.5,258.4L243.4,258.4L243.4,258.4L243.3,258.3L243.2,258.3L243.1,258.2L243.1,258.2L243.0,258.1L242.9,258.0L242.9,258.0L242.8,257.9L242.8,257.8L242.8,257.7L242.8,257.6L242.8,257.5L242.8,257.5L242.8,257.4L242.8,257.3L242.8,257.2L242.9,257.1L242.9,257.0L243.0,256.9L243.0,256.9L243.1,256.8L243.1,256.8L243.2,256.7L243.3,256.7L243.3,256.6L243.4,256.6L243.5,256.6L243.6,256.6L243.6,256.5L243.7,256.5L243.8,256.5L243.9,256.5L244.0,256.5L244.0,256.5L244.1,256.5L244.2,256.5L244.2,256.5L244.3,256.6L244.4,256.6L244.4,256.6L244.4,256.7L244.4,256.8L244.5,256.9L244.5,257.0L244.5,257.1L244.5,257.2L244.5,257.3L244.5,257.4Z"/><path d="M158.1,255.7L158.1,255.8L158.0,255.9L158.0,255.9L157.9,256.0L157.8,256.1L157.7,256.2L157.7,256.2L157.6,256.3L157.5,256.4L157.4,256.4L157.3,256.5L157.3,256.6L157.2,256.7L157.1,256.8L157.1,256.9L157.0,256.9L156.9,257.0L156.9,257.1L156.8,257.1L156.7,257.1L156.7,257.1L156.6,257.0L156.5,257.0L156.4,256.9L156.3,256.8L156.2,256.7L156.2,256.6L156.1,256.5L156.0,256.4L156.0,256.3L155.9,256.2L155.9,256.1L155.9,256.0L155.8,255.9L155.8,255.8L155.8,255.7L155.8,255.6L155.8,255.5L155.8,255.4L155.8,255.3L155.9,255.2L155.9,255.1L156.0,255.0L156.1,255.0L156.2,254.9L156.3,254.8L156.4,254.7L156.5,254.7L156.6,254.7L156.6,254.6L156.7,254.6L156.8,254.6L156.9,254.6L157.0,254.6L157.1,254.7L157.2,254.7L157.3,254.7L157.4,254.8L157.5,254.8L157.6,254.9L157.7,254.9L157.7,255.0L157.8,255.1L157.9,255.2L157.9,255.3L158.0,255.4L158.1,255.5L158.1,255.5L158.1,255.6Z"/><path d="M149.8,264.4L149.8,264.5L149.8,264.5L149.8,264.6L149.8,264.6L149.7,264.7L149.7,264.8L149.6,264.8L149.6,264.9L149.6,264.9L149.5,264.9L149.5,265.0L149.4,265.0L149.4,265.0L149.3,265.1L149.3,265.1L149.2,265.1L149.2,265.2L149.1,265.2L149.1,265.2L149.0,265.2L149.0,265.2L148.9,265.1L148.9,265.1L148.9,265.0L148.8,265.0L148.8,264.9L148.7,264.9L148.7,264.8L148.7,264.8L148.6,264.7L148.6,264.7L148.6,264.6L148.5,264.5L148.5,264.4L148.4,264.4L148.4,264.3L148.4,264.2L148.4,264.2L148.4,264.1L148.4,264.0L148.4,264.0L148.4,264.0L148.5,264.0L148.6,264.0L148.7,263.9L148.7,263.9L148.8,263.9L148.9,263.9L149.0,263.9L149.1,263.9L149.1,263.9L149.2,263.8L149.3,263.8L149.3,263.8L149.4,263.8L149.5,263.7L149.5,263.7L149.6,263.7L149.6,263.7L149.7,263.7L149.7,263.8L149.8,263.8L149.8,263.9L149.8,263.9L149.8,264.0L149.8,264.1L149.8,264.2L149.9,264.3L149.9,264.3Z"/><path d="M236.4,260.9L236.4,261.0L236.3,261.1L236.3,261.2L236.2,261.2L236.2,261.3L236.1,261.4L236.0,261.5L236.0,261.5L235.9,261.6L235.9,261.7L235.8,261.8L235.7,261.9L235.7,262.0L235.6,262.0L235.5,262.1L235.5,262.2L235.4,262.3L235.3,262.4L235.2,262.4L235.2,262.4L235.0,262.4L234.9,262.3L234.8,262.2L234.6,262.2L234.5,262.1L234.3,261.9L234.2,261.8L234.1,261.7L234.0,261.6L233.9,261.5L233.9,261.4L233.9,261.3L233.9,261.2L233.9,261.1L234.0,261.0L234.0,260.9L234.1,260.7L234.1,260.6L234.2,260.5L234.2,260.4L234.3,260.3L234.3,260.2L234.4,260.2L234.5,260.1L234.6,260.0L234.7,259.9L234.7,259.8L234.8,259.7L234.9,259.7L235.0,259.6L235.1,259.6L235.2,259.6L235.4,259.6L235.5,259.5L235.6,259.5L235.7,259.5L235.9,259.6L236.0,259.6L236.1,259.6L236.1,259.7L236.2,259.8L236.3,259.9L236.3,260.0L236.3,260.1L236.4,260.2L236.4,260.4L236.4,260.5L236.4,260.7L236.4,260.8Z"/><path d="M245.9,258.6L245.9,258.7L245.8,258.7L245.8,258.8L245.7,258.8L245.7,258.9L245.6,258.9L245.6,259.0L245.5,259.0L245.5,259.1L245.4,259.1L245.4,259.1L245.3,259.1L245.3,259.2L245.3,259.2L245.2,259.1L245.2,259.1L245.1,259.1L245.1,259.1L245.1,259.1L245.0,259.1L245.0,259.1L244.9,259.1L244.9,259.1L244.8,259.1L244.8,259.1L244.7,259.0L244.7,259.0L244.6,259.0L244.6,259.0L244.6,258.9L244.6,258.9L244.5,258.8L244.5,258.8L244.5,258.7L244.5,258.6L244.5,258.6L244.5,258.5L244.5,258.4L244.5,258.4L244.6,258.3L244.6,258.3L244.6,258.3L244.7,258.2L244.7,258.2L244.8,258.2L244.8,258.2L244.9,258.2L244.9,258.1L245.0,258.1L245.0,258.1L245.1,258.1L245.1,258.1L245.2,258.1L245.2,258.1L245.3,258.1L245.4,258.1L245.4,258.1L245.5,258.1L245.5,258.1L245.6,258.1L245.6,258.1L245.6,258.2L245.7,258.2L245.7,258.3L245.8,258.3L245.8,258.4L245.8,258.4L245.9,258.5L245.9,258.5Z"/><path d="M246.0,246.8L246.0,246.8L246.0,246.9L246.0,246.9L245.9,247.0L245.9,247.0L245.8,247.1L245.8,247.1L245.7,247.2L245.7,247.2L245.6,247.2L245.6,247.3L245.5,247.3L245.4,247.4L245.4,247.4L245.3,247.5L245.2,247.5L245.1,247.6L245.0,247.6L245.0,247.6L244.9,247.6L244.9,247.6L244.8,247.5L244.7,247.5L244.7,247.4L244.6,247.3L244.6,247.2L244.6,247.2L244.5,247.1L244.5,247.0L244.5,247.0L244.4,246.9L244.4,246.8L244.4,246.8L244.4,246.7L244.4,246.7L244.4,246.6L244.4,246.6L244.4,246.5L244.4,246.5L244.5,246.4L244.5,246.4L244.5,246.4L244.6,246.3L244.6,246.3L244.7,246.3L244.7,246.2L244.8,246.2L244.9,246.2L244.9,246.2L245.0,246.2L245.0,246.2L245.1,246.2L245.1,246.2L245.1,246.2L245.2,246.2L245.2,246.2L245.3,246.2L245.3,246.2L245.4,246.3L245.4,246.3L245.5,246.3L245.5,246.4L245.6,246.4L245.7,246.5L245.8,246.5L245.8,246.6L245.9,246.6L245.9,246.7L246.0,246.7Z"/><path d="M247.0,259.4L247.0,259.5L247.0,259.6L247.0,259.7L247.0,259.8L247.0,259.9L247.0,260.0L247.0,260.0L246.9,260.1L246.9,260.2L246.9,260.2L246.8,260.3L246.7,260.3L246.6,260.3L246.5,260.3L246.4,260.3L246.3,260.2L246.2,260.2L246.1,260.2L246.0,260.2L245.9,260.1L245.9,260.1L245.8,260.1L245.7,260.1L245.7,260.1L245.6,260.0L245.5,260.0L245.5,260.0L245.4,260.0L245.4,259.9L245.3,259.9L245.3,259.8L245.3,259.7L245.3,259.7L245.3,259.6L245.3,259.5L245.3,259.4L245.3,259.3L245.4,259.2L245.4,259.1L245.4,259.1L245.4,259.0L245.4,258.9L245.5,258.8L245.5,258.7L245.5,258.6L245.6,258.5L245.6,258.4L245.7,258.4L245.7,258.3L245.8,258.3L245.9,258.3L246.0,258.3L246.1,258.4L246.2,258.4L246.3,258.5L246.4,258.5L246.5,258.6L246.7,258.7L246.7,258.7L246.8,258.8L246.9,258.8L246.9,258.9L246.9,258.9L247.0,259.0L247.0,259.1L247.0,259.1L247.0,259.2L247.0,259.3L247.0,259.3Z"/><path d="M177.0,348.0L176.8,350.4L176.2,352.7L175.1,354.9L174.2,357.2L173.7,359.7L173.6,362.0L173.4,364.4L173.0,366.9L173.0,369.5L173.0,372.0L172.7,374.2L172.5,376.6L172.9,379.2L173.7,381.5L174.3,383.7L174.3,386.2L174.3,388.7L174.7,391.1L175.2,393.5L175.7,395.8L176.5,398.1L177.0,398.0L177.0,398.0L177.1,397.9L177.0,395.6L176.8,393.1L176.3,390.8L175.7,388.5L175.6,386.2L176.0,383.7L176.3,381.2L176.4,378.8L176.4,376.5L176.3,374.2L175.8,371.7L174.9,369.3L174.5,367.0L175.0,364.7L175.7,362.4L176.2,360.0L176.5,357.7L176.9,355.4L177.1,352.9L177.1,350.4L177.0,348.0Z"/><path d="M224.0,344.0L224.5,346.4L224.8,348.7L224.8,351.1L224.8,353.6L224.9,355.9L224.8,358.2L224.7,360.8L225.3,363.3L226.1,365.5L226.4,367.9L226.8,370.3L227.4,372.7L227.5,374.9L227.1,377.2L227.0,379.7L227.0,382.0L226.8,384.2L226.5,386.7L226.7,389.2L226.8,391.6L226.7,394.0L227.0,396.0L227.0,396.0L227.0,394.1L227.4,391.7L227.8,389.3L228.3,387.0L229.2,384.8L230.0,382.3L230.0,379.7L229.8,377.4L229.8,374.9L229.2,372.3L228.3,370.0L228.0,367.7L228.0,365.2L227.7,362.8L227.5,360.6L227.6,358.3L227.5,355.7L226.7,353.3L226.1,351.0L225.5,348.6L224.8,346.3L224.0,344.0Z"/><path d="M175.4,352.7L176.5,355.1L177.6,357.7L178.7,359.7L180.2,361.2L182.1,362.4L184.3,363.8L186.1,365.8L187.3,368.4L188.0,371.4L189.3,374.2L192.3,376.4L197.4,376.8L201.9,374.6L204.6,372.0L206.8,370.7L209.5,370.5L212.5,370.2L215.2,368.8L216.6,366.4L217.0,363.6L217.6,361.0L219.0,358.9L221.0,357.3L223.0,355.6L224.6,353.7L225.1,351.9L224.6,352.3L224.0,352.4L223.4,352.3L222.9,351.9L222.6,351.3L222.6,350.7L222.9,350.1L221.3,350.9L219.7,352.6L218.4,354.4L216.6,355.9L214.2,356.7L211.1,357.1L208.1,357.7L206.1,358.7L205.1,360.3L204.2,362.6L203.0,365.0L201.3,366.4L199.5,366.1L198.9,364.4L199.1,363.0L198.0,362.4L195.5,362.2L192.4,362.2L189.9,361.7L188.4,360.2L187.5,357.9L186.4,355.4L184.4,353.5L181.8,352.5L179.1,352.0L176.6,351.3L176.9,351.6L176.9,352.0L176.8,352.4L176.6,352.8L176.2,352.9L175.8,352.9Z"/><path d="M184.0,372.0L184.4,374.2L184.6,376.3L184.9,378.5L184.8,380.8L186.1,382.9L186.8,385.0L187.6,385.7L187.6,385.7L187.9,384.6L186.9,382.6L186.9,380.4L186.2,378.3L186.2,376.0L185.1,374.0L184.0,372.0Z"/><path d="M175.2,374.0L175.3,376.2L175.2,378.5L175.7,380.6L176.4,382.9L177.0,385.0L178.2,386.8L178.2,389.0L178.8,389.7L178.8,389.7L179.2,388.9L178.9,386.7L179.0,384.2L177.7,382.3L177.1,380.3L176.8,378.1L175.8,376.1L175.2,374.0Z"/><path d="M166.4,375.9L166.5,378.3L166.9,380.6L168.3,382.3L169.2,384.2L169.2,384.2L169.1,382.0L169.0,379.6L167.3,378.0L166.4,375.9Z"/><path d="M157.7,377.9L157.5,380.2L157.8,382.4L158.1,384.4L158.1,386.7L158.3,388.9L158.8,391.1L159.8,392.7L159.8,392.7L159.9,390.9L159.7,388.7L159.1,386.6L159.5,384.4L159.7,382.0L158.6,379.9L157.7,377.9Z"/><path d="M150.0,402.0L147.7,402.7L145.4,403.5L143.2,404.3L140.9,405.1L138.7,406.0L136.4,406.9L134.2,407.7L131.9,408.5L129.6,409.2L127.3,409.8L124.9,410.5L122.6,411.2L120.3,412.0L118.0,413.0L115.8,414.2L113.8,415.6L111.8,417.2L109.9,418.8L108.1,420.5L106.3,422.2L104.6,423.8L102.7,425.4L100.9,426.9L99.0,428.3L97.1,429.7L95.2,431.1L93.4,432.6L91.6,434.1L89.8,435.8L88.1,437.5L86.4,439.3L84.8,441.1L83.2,442.9L81.6,444.7L80.0,446.5L78.4,448.3L76.8,450.1L75.2,451.9L73.6,453.7L72.1,455.6L70.7,457.5L69.2,459.4L69.5,459.3L69.8,459.2L70.0,459.3L70.3,459.5L70.4,459.7L70.4,460.0L70.3,460.3L71.9,458.5L73.5,456.7L75.0,454.9L76.5,453.0L78.0,451.1L79.4,449.2L80.9,447.3L82.5,445.5L84.2,443.9L86.0,442.3L87.9,440.9L89.8,439.5L91.8,438.2L93.8,436.8L95.6,435.4L97.5,433.8L99.2,432.1L100.8,430.3L102.4,428.5L104.0,426.7L105.6,424.9L107.3,423.3L109.2,421.7L111.1,420.4L113.2,419.1L115.2,417.9L117.3,416.8L119.4,415.8L121.5,414.7L123.6,413.6L125.7,412.5L127.9,411.4L130.1,410.4L132.3,409.4L134.5,408.4L136.7,407.5L138.9,406.6L141.2,405.8L143.4,404.9L145.6,404.0L147.8,403.0L150.0,402.0Z"/><path d="M61.3,472.0L60.6,474.4L60.0,476.8L59.3,479.1L58.6,481.5L58.0,483.9L57.7,486.3L57.6,488.7L57.5,491.1L57.1,493.5L56.5,495.8L55.8,498.1L55.4,500.5L55.2,502.9L55.0,505.3L54.5,507.6L53.9,510.0L53.4,512.3L53.0,514.7L52.7,517.1L52.3,519.4L52.0,520.0L52.0,520.0L52.5,519.5L53.2,517.2L53.9,514.9L54.5,512.5L54.9,510.1L55.2,507.8L55.8,505.4L56.5,503.1L57.3,500.9L57.8,498.5L58.0,496.1L58.2,493.7L58.5,491.3L59.0,488.9L59.6,486.6L60.0,484.2L60.1,481.7L60.2,479.3L60.7,476.9L61.4,474.6L62.3,472.4L62.2,472.6L62.0,472.7L61.8,472.7L61.6,472.6L61.4,472.5L61.3,472.2Z"/><path d="M125.3,411.4L122.9,411.8L120.6,412.6L118.4,413.6L116.2,414.7L114.0,415.7L111.6,416.5L109.0,417.2L106.5,418.0L104.2,419.2L102.3,421.0L100.8,423.1L99.5,425.3L98.1,427.3L96.3,428.9L94.3,430.2L92.1,431.3L90.1,432.7L88.4,434.4L87.0,436.5L85.8,438.8L84.6,441.0L83.2,443.0L81.8,444.9L82.0,444.8L82.3,444.7L82.6,444.8L82.8,444.9L82.9,445.2L82.9,445.5L82.8,445.7L84.3,443.9L86.1,442.3L88.1,441.0L90.3,439.8L92.3,438.6L94.1,437.0L95.6,435.1L96.9,433.0L98.4,431.0L100.1,429.4L102.1,428.0L104.3,426.9L106.4,425.7L108.3,424.4L109.8,422.7L111.4,420.8L113.0,419.0L114.9,417.6L117.0,416.5L119.3,415.7L121.5,414.9L123.7,413.9L125.8,412.7L125.5,412.8L125.2,412.7L125.0,412.4L124.9,412.1L124.9,411.8L125.1,411.5Z"/><path d="M253.0,399.0L255.2,399.9L257.4,400.8L259.7,401.8L261.9,402.8L264.0,403.8L266.1,405.0L268.2,406.1L270.2,407.3L272.3,408.5L274.3,409.7L276.4,410.9L278.5,412.1L280.6,413.3L282.7,414.6L284.7,415.9L286.7,417.3L288.6,418.6L290.6,420.0L292.5,421.3L294.4,422.6L296.3,423.9L298.2,425.1L300.2,426.5L302.1,427.9L303.9,429.4L305.7,431.0L307.5,432.7L309.3,434.3L311.1,436.0L313.0,437.5L314.9,439.0L316.8,440.4L318.8,441.8L320.7,443.3L322.5,444.8L324.2,446.5L325.7,448.4L326.2,448.0L324.9,446.0L323.5,443.9L321.9,442.0L320.2,440.2L318.4,438.5L316.4,436.9L314.4,435.5L312.4,434.2L310.4,432.9L308.5,431.5L306.6,430.0L304.9,428.4L303.3,426.7L301.7,424.9L300.0,423.0L298.3,421.3L296.3,419.8L294.3,418.5L292.1,417.4L289.9,416.4L287.6,415.5L285.5,414.5L283.3,413.5L281.3,412.3L279.3,410.9L277.3,409.5L275.4,408.1L273.3,406.7L271.2,405.5L269.0,404.4L266.7,403.5L264.4,402.8L262.1,402.0L259.8,401.3L257.5,400.6L255.3,399.8L253.0,399.0Z"/><path d="M333.0,461.0L334.0,463.2L334.9,465.4L335.8,467.6L336.7,469.8L337.5,472.0L338.3,474.2L339.0,476.5L339.5,478.8L339.9,481.2L340.1,483.6L340.2,486.0L340.4,488.5L340.7,490.9L341.2,493.2L342.0,495.6L342.8,497.8L343.8,500.1L344.6,502.3L345.3,504.6L345.9,506.9L346.3,509.3L346.8,511.6L347.3,514.0L347.8,516.3L348.5,518.6L349.0,520.0L349.0,520.0L348.8,518.6L348.4,516.2L348.1,513.8L347.7,511.5L347.2,509.1L346.6,506.8L346.0,504.4L345.5,502.1L345.0,499.7L344.6,497.3L344.2,495.0L343.7,492.6L343.1,490.4L342.5,488.1L342.0,485.8L341.4,483.4L341.0,481.1L340.6,478.7L340.3,476.2L340.0,473.8L339.4,471.4L338.6,469.0L337.6,466.8L336.4,464.6L335.0,462.6L333.7,460.6L333.7,460.7L333.7,460.9L333.6,461.1L333.4,461.1L333.3,461.2L333.1,461.1Z"/><path d="M329.7,460.1L331.1,462.1L332.6,464.0L333.9,466.0L334.7,468.2L335.3,470.6L336.1,472.8L337.2,474.8L338.6,476.7L339.6,478.9L340.0,481.2L340.0,483.7L340.2,486.2L340.9,488.5L342.2,490.7L343.4,492.8L344.2,495.1L344.5,497.4L344.7,499.8L345.1,502.1L345.8,504.4L346.4,506.8L346.9,509.1L347.2,509.1L347.2,506.7L347.4,504.3L347.5,501.8L347.2,499.4L346.5,497.0L345.7,494.7L345.3,492.3L345.2,489.8L345.1,487.3L344.6,485.0L343.6,482.8L342.4,480.6L341.6,478.3L341.2,475.9L341.0,473.3L340.2,470.8L338.8,468.7L336.9,466.9L335.2,465.1L333.8,463.2L332.8,461.0L331.6,459.0L331.8,459.4L331.7,459.9L331.4,460.3L331.0,460.6L330.5,460.6L330.1,460.5Z"/><path d="M152.0,404.0L153.5,405.9L155.1,407.8L156.7,409.5L158.3,411.3L159.9,413.1L161.6,414.9L163.2,416.6L165.1,418.3L167.1,419.8L169.2,421.2L171.4,422.3L173.7,423.2L175.9,424.1L178.0,425.0L180.1,426.1L182.2,427.2L184.5,428.3L186.8,429.3L189.2,430.2L191.7,430.9L194.1,431.4L196.5,431.8L198.8,432.3L201.2,432.6L203.7,432.8L206.4,432.8L209.1,432.5L211.8,431.8L214.3,430.7L216.6,429.6L218.8,428.3L220.9,427.2L223.1,426.2L225.3,425.2L227.6,424.1L229.8,422.8L231.9,421.4L233.8,419.8L235.6,418.1L237.2,416.5L238.9,414.9L240.6,413.3L242.3,411.6L244.1,409.9L245.8,408.2L247.4,406.3L248.9,404.5L250.5,402.7L251.0,402.0L251.0,402.0L250.3,402.4L248.4,403.9L246.5,405.4L244.6,406.8L242.6,408.1L240.6,409.4L238.6,410.8L236.6,412.3L234.8,414.0L233.2,415.8L231.6,417.5L230.0,419.2L228.3,420.7L226.4,422.0L224.4,423.1L222.2,424.0L219.9,424.8L217.6,425.5L215.3,426.1L213.0,426.6L210.7,426.8L208.6,426.8L206.4,426.7L204.2,426.4L201.9,426.1L199.4,426.0L196.9,426.0L194.5,426.1L192.2,426.2L189.9,426.3L187.7,426.1L185.4,425.7L183.2,424.9L181.1,424.0L179.0,423.0L176.9,421.9L174.8,420.8L172.8,419.7L170.9,418.4L169.0,417.1L167.1,415.7L165.3,414.3L163.4,412.8L161.5,411.4L159.6,409.9L157.6,408.6L155.6,407.2L153.7,405.7L152.0,404.0Z"/><path d="M161.0,402.0L162.8,403.6L164.4,405.3L166.1,407.1L167.8,408.9L169.6,410.5L171.5,412.0L173.5,413.4L175.4,414.8L177.4,416.2L179.4,417.6L181.6,418.9L183.9,419.7L186.3,420.3L188.7,420.8L190.9,421.2L193.2,421.7L195.6,422.2L198.1,422.5L200.5,422.6L203.0,422.5L205.4,422.3L207.7,422.2L210.2,422.1L212.7,421.9L215.2,421.3L217.6,420.4L219.9,419.2L222.0,417.9L224.0,416.6L226.0,415.2L228.0,413.8L229.8,412.2L231.5,410.4L233.2,408.6L234.8,406.9L236.6,405.3L238.4,403.8L240.3,402.2L242.1,400.7L243.0,400.0L243.0,400.0L242.0,400.6L240.1,402.0L238.1,403.3L236.0,404.7L234.1,406.1L232.2,407.7L230.4,409.3L228.6,410.8L226.8,412.2L224.8,413.5L222.8,414.8L220.8,416.2L218.8,417.5L216.8,418.8L214.7,419.7L212.4,420.4L210.1,420.7L207.7,420.9L205.3,421.1L202.9,421.3L200.5,421.4L198.2,421.3L195.9,420.8L193.6,420.2L191.4,419.5L189.1,418.9L186.8,418.3L184.6,417.7L182.5,416.9L180.5,415.8L178.5,414.6L176.4,413.3L174.4,412.1L172.3,410.9L170.2,409.6L168.3,408.2L166.5,406.7L164.7,405.1L162.9,403.5L161.0,402.0Z"/><path d="M104.0,454.0L105.1,456.2L106.7,458.1L108.5,459.8L110.1,461.5L111.3,463.6L112.5,465.9L114.0,468.1L115.1,469.8L115.7,471.3L116.5,473.5L118.1,475.9L119.9,477.6L121.2,479.0L122.2,481.0L123.2,483.4L124.6,485.7L125.8,487.7L126.2,489.7L126.5,492.2L127.2,494.8L128.3,496.9L129.0,498.6L129.6,500.7L130.4,503.2L131.6,505.5L132.6,507.8L133.0,508.0L133.0,508.0L133.4,507.6L133.3,505.1L133.4,502.8L133.8,500.4L134.1,497.7L133.5,494.8L132.4,492.5L131.4,490.6L130.5,488.4L129.1,485.9L127.5,483.8L126.5,482.0L126.2,479.9L126.0,477.2L125.1,474.3L124.2,472.2L123.5,470.3L122.4,467.8L120.3,465.3L117.8,463.7L115.7,462.7L113.7,461.4L111.6,459.9L109.3,458.7L107.3,457.4L105.6,455.9L104.0,454.0Z"/><path d="M300.0,452.0L297.9,453.3L296.0,454.9L294.3,456.6L292.8,458.6L291.5,460.8L290.0,462.8L288.2,464.2L286.2,465.1L284.2,466.2L282.4,468.3L281.3,471.0L280.5,473.4L279.2,475.4L277.2,477.0L274.9,479.1L273.3,482.0L273.1,485.0L273.8,487.4L274.3,489.7L274.3,492.1L273.8,494.5L273.2,496.8L272.7,499.1L272.4,501.4L272.1,503.8L272.0,506.0L272.0,506.0L273.1,504.2L274.5,502.1L275.4,499.7L275.8,497.3L275.9,494.9L276.6,492.7L277.9,490.5L279.3,488.0L280.2,485.5L280.5,483.5L280.4,481.7L280.8,479.6L281.8,477.4L283.4,475.5L285.4,474.0L287.3,472.8L289.0,471.6L290.6,469.5L291.8,466.8L292.5,464.1L293.2,461.8L294.5,459.8L296.1,458.1L297.6,456.3L298.8,454.1L300.0,452.0Z"/><path d="M150.0,486.0L150.4,488.2L151.3,490.2L152.1,492.2L152.5,494.5L154.0,495.4L154.0,495.4L153.8,494.0L153.3,491.8L152.7,489.6L151.5,487.7L150.0,486.0Z"/><path d="M142.5,488.9L143.4,491.0L143.9,493.1L144.2,495.2L145.0,497.3L145.3,499.6L146.3,501.6L147.5,503.5L148.5,505.5L148.9,505.4L148.9,505.4L149.2,505.1L148.1,503.2L147.8,501.0L147.2,498.9L145.9,497.1L145.8,494.8L145.2,492.6L143.7,490.8L142.5,488.9Z"/><path d="M135.1,491.8L135.8,493.9L136.3,496.0L136.5,498.2L137.5,500.3L138.3,502.4L139.5,503.1L139.5,503.1L139.3,501.9L138.7,499.9L138.0,497.9L137.9,495.5L136.3,493.6L135.1,491.8Z"/><path d="M127.6,494.7L127.9,496.9L128.5,499.1L129.7,501.1L130.4,503.2L131.2,505.1L132.2,507.0L132.8,509.2L133.6,511.3L134.4,511.8L134.4,511.8L134.3,511.0L134.1,508.8L133.0,506.8L132.9,504.5L132.2,502.2L130.4,500.6L129.6,498.6L128.7,496.7L127.6,494.7Z"/><path d="M72.5,255.2L72.5,255.4L72.4,255.5L72.3,255.7L72.2,255.9L72.0,256.1L71.8,256.3L71.6,256.5L71.4,256.7L71.2,256.9L71.0,257.0L70.9,257.1L70.7,257.3L70.5,257.4L70.3,257.5L70.2,257.6L70.0,257.7L69.8,257.8L69.6,257.8L69.4,257.8L69.3,257.9L69.1,257.8L68.9,257.8L68.7,257.7L68.6,257.7L68.4,257.6L68.2,257.5L68.0,257.4L67.9,257.3L67.7,257.1L67.5,257.0L67.3,256.9L67.1,256.7L66.9,256.6L66.6,256.4L66.4,256.3L66.2,256.1L66.0,255.9L65.9,255.7L65.8,255.6L65.8,255.4L65.9,255.3L66.1,255.2L66.3,255.1L66.6,254.9L67.0,254.8L67.3,254.7L67.6,254.6L67.9,254.5L68.2,254.4L68.4,254.3L68.6,254.2L68.8,254.2L68.9,254.1L69.0,254.0L69.1,253.9L69.2,253.9L69.3,253.8L69.4,253.8L69.5,253.8L69.6,253.8L69.7,253.8L69.8,253.8L69.8,253.8L69.9,253.9L70.0,253.9L70.1,254.0L70.2,254.0L70.3,254.1L70.5,254.2L70.6,254.3L70.8,254.3L71.0,254.4L71.2,254.5L71.5,254.6L71.7,254.6L72.0,254.7L72.2,254.8L72.3,255.0L72.5,255.1Z"/><path d="M54.1,289.1L54.1,289.2L54.1,289.3L54.1,289.4L54.1,289.5L54.0,289.6L54.0,289.8L53.9,289.9L53.9,290.0L53.8,290.1L53.7,290.2L53.6,290.2L53.5,290.3L53.4,290.4L53.2,290.4L53.1,290.5L52.9,290.5L52.8,290.6L52.6,290.6L52.5,290.6L52.4,290.6L52.3,290.5L52.2,290.5L52.1,290.4L52.0,290.3L51.9,290.2L51.9,290.1L51.8,290.0L51.7,289.9L51.7,289.7L51.7,289.6L51.6,289.5L51.6,289.4L51.6,289.3L51.7,289.2L51.7,289.1L51.7,289.0L51.7,288.9L51.8,288.8L51.8,288.7L51.9,288.6L51.9,288.5L52.0,288.4L52.1,288.4L52.2,288.3L52.2,288.3L52.3,288.3L52.4,288.2L52.5,288.2L52.6,288.2L52.7,288.1L52.8,288.1L52.9,288.1L53.0,288.1L53.1,288.1L53.2,288.1L53.4,288.1L53.5,288.1L53.6,288.2L53.6,288.2L53.7,288.2L53.8,288.3L53.9,288.3L53.9,288.4L54.0,288.5L54.0,288.6L54.0,288.7L54.1,288.8L54.1,288.9L54.1,289.0Z"/><path d="M73.2,261.9L73.2,262.0L73.2,262.1L73.2,262.2L73.2,262.3L73.2,262.4L73.1,262.5L73.1,262.6L73.1,262.7L73.0,262.7L73.0,262.8L72.9,262.8L72.8,262.8L72.8,262.8L72.7,262.8L72.6,262.8L72.5,262.8L72.4,262.8L72.3,262.8L72.2,262.7L72.1,262.7L72.1,262.7L72.0,262.6L71.9,262.6L71.8,262.6L71.7,262.5L71.6,262.5L71.5,262.5L71.5,262.4L71.4,262.3L71.4,262.3L71.3,262.2L71.3,262.1L71.2,262.0L71.2,261.9L71.2,261.8L71.2,261.7L71.2,261.5L71.2,261.4L71.2,261.3L71.2,261.3L71.3,261.2L71.3,261.1L71.4,261.0L71.4,261.0L71.5,260.9L71.6,260.8L71.7,260.8L71.8,260.7L71.9,260.7L72.0,260.7L72.1,260.7L72.2,260.7L72.3,260.7L72.5,260.7L72.6,260.7L72.8,260.7L72.9,260.8L73.1,260.8L73.2,260.9L73.2,260.9L73.3,261.0L73.3,261.1L73.3,261.2L73.3,261.3L73.3,261.4L73.3,261.5L73.3,261.6L73.3,261.7L73.2,261.8Z"/><path d="M79.8,277.1L79.8,277.3L79.9,277.5L79.9,277.8L79.9,278.0L79.9,278.3L79.8,278.6L79.8,278.8L79.7,279.1L79.6,279.3L79.5,279.4L79.3,279.6L79.1,279.7L78.9,279.7L78.7,279.8L78.4,279.8L78.2,279.8L77.9,279.8L77.6,279.8L77.3,279.8L77.1,279.9L76.8,279.9L76.5,279.9L76.2,280.0L75.9,280.0L75.6,280.1L75.3,280.1L75.0,280.1L74.7,280.1L74.5,280.1L74.3,280.0L74.2,279.8L74.1,279.7L74.1,279.5L74.1,279.2L74.1,279.0L74.2,278.7L74.2,278.4L74.2,278.1L74.2,277.9L74.2,277.6L74.2,277.3L74.2,277.0L74.1,276.7L74.0,276.3L74.0,276.0L74.0,275.7L73.9,275.4L74.0,275.1L74.0,274.9L74.1,274.7L74.3,274.6L74.6,274.6L74.9,274.6L75.2,274.6L75.6,274.6L76.0,274.7L76.4,274.8L76.7,274.9L77.0,275.0L77.3,275.0L77.5,275.1L77.7,275.2L77.9,275.3L78.0,275.3L78.2,275.4L78.3,275.5L78.5,275.6L78.6,275.7L78.7,275.8L78.8,275.9L79.0,276.0L79.1,276.1L79.2,276.2L79.3,276.3L79.4,276.4L79.5,276.5L79.6,276.6L79.7,276.8L79.8,276.9Z"/><path d="M46.6,341.9L46.7,342.2L46.7,342.5L46.8,342.9L46.9,343.3L47.0,343.6L47.1,344.0L47.2,344.3L47.2,344.6L47.2,344.8L47.1,345.0L47.0,345.1L46.8,345.1L46.6,345.0L46.3,344.9L46.0,344.8L45.7,344.7L45.4,344.5L45.1,344.4L44.9,344.3L44.6,344.2L44.4,344.1L44.2,344.1L44.0,344.1L43.8,344.0L43.7,344.0L43.5,344.0L43.3,344.0L43.1,343.9L43.0,343.9L42.8,343.8L42.6,343.7L42.4,343.5L42.2,343.3L42.0,343.2L41.8,343.0L41.6,342.8L41.4,342.6L41.3,342.4L41.2,342.2L41.2,342.0L41.3,341.9L41.5,341.8L41.7,341.6L41.9,341.5L42.2,341.4L42.5,341.3L42.8,341.2L43.1,341.1L43.3,341.0L43.5,340.8L43.7,340.7L43.8,340.6L43.9,340.4L43.9,340.3L44.0,340.2L44.0,340.0L44.1,339.9L44.2,339.8L44.3,339.7L44.4,339.6L44.6,339.6L44.8,339.5L45.1,339.4L45.3,339.4L45.6,339.4L45.8,339.3L46.1,339.3L46.3,339.4L46.5,339.4L46.6,339.5L46.7,339.6L46.8,339.8L46.8,340.0L46.8,340.2L46.7,340.5L46.7,340.7L46.7,341.0L46.6,341.3L46.6,341.6Z"/><path d="M85.8,347.4L85.8,347.5L85.8,347.6L85.8,347.8L85.8,347.9L85.8,348.1L85.8,348.2L85.7,348.4L85.7,348.5L85.6,348.6L85.5,348.6L85.4,348.7L85.3,348.7L85.2,348.7L85.0,348.7L84.9,348.7L84.7,348.7L84.5,348.7L84.4,348.6L84.2,348.6L84.1,348.6L83.9,348.5L83.8,348.5L83.6,348.5L83.5,348.4L83.4,348.4L83.2,348.3L83.1,348.3L83.0,348.2L82.9,348.1L82.9,348.0L82.8,347.9L82.8,347.8L82.8,347.7L82.8,347.5L82.8,347.4L82.8,347.2L82.8,347.1L82.9,347.0L82.9,346.8L83.0,346.7L83.1,346.7L83.2,346.6L83.3,346.5L83.4,346.5L83.5,346.4L83.6,346.4L83.7,346.3L83.9,346.3L84.0,346.3L84.1,346.2L84.2,346.2L84.3,346.2L84.4,346.2L84.6,346.2L84.7,346.2L84.8,346.2L84.9,346.2L85.0,346.2L85.1,346.3L85.2,346.3L85.3,346.4L85.4,346.5L85.4,346.6L85.5,346.7L85.6,346.8L85.6,346.9L85.7,347.0L85.7,347.1L85.8,347.3Z"/><path d="M92.8,303.3L92.8,303.4L92.7,303.5L92.7,303.6L92.6,303.7L92.5,303.8L92.4,303.9L92.3,304.0L92.2,304.1L92.1,304.2L92.0,304.2L91.9,304.3L91.8,304.4L91.7,304.5L91.6,304.6L91.4,304.7L91.3,304.8L91.2,304.9L91.0,304.9L90.9,305.0L90.8,305.0L90.7,304.9L90.7,304.8L90.6,304.7L90.5,304.6L90.4,304.5L90.4,304.3L90.3,304.2L90.3,304.0L90.2,303.9L90.2,303.7L90.1,303.6L90.1,303.5L90.0,303.3L90.0,303.2L89.9,303.1L89.9,302.9L89.8,302.8L89.8,302.7L89.8,302.6L89.8,302.5L89.9,302.4L90.0,302.3L90.0,302.2L90.1,302.2L90.2,302.1L90.4,302.1L90.5,302.0L90.6,302.0L90.7,301.9L90.9,301.9L91.0,301.9L91.1,301.9L91.2,302.0L91.4,302.0L91.5,302.0L91.6,302.1L91.8,302.2L91.9,302.2L92.0,302.3L92.1,302.4L92.2,302.4L92.3,302.5L92.4,302.6L92.5,302.7L92.6,302.8L92.6,302.9L92.7,303.0L92.8,303.1L92.8,303.2Z"/><path d="M51.9,341.1L51.9,341.2L51.8,341.3L51.7,341.4L51.7,341.5L51.5,341.6L51.4,341.7L51.3,341.7L51.2,341.8L51.1,341.9L51.0,342.0L50.9,342.0L50.8,342.1L50.7,342.2L50.7,342.2L50.6,342.2L50.5,342.3L50.4,342.3L50.3,342.3L50.2,342.4L50.1,342.4L50.0,342.4L49.9,342.3L49.7,342.3L49.6,342.3L49.4,342.3L49.3,342.2L49.2,342.2L49.0,342.1L49.0,342.0L48.9,342.0L48.9,341.9L48.9,341.8L48.9,341.7L49.0,341.6L49.0,341.4L49.1,341.3L49.2,341.2L49.3,341.1L49.3,341.0L49.4,340.8L49.5,340.7L49.5,340.6L49.6,340.5L49.7,340.3L49.8,340.2L49.9,340.1L50.0,339.9L50.0,339.9L50.1,339.8L50.2,339.7L50.3,339.7L50.4,339.7L50.5,339.8L50.6,339.8L50.7,339.9L50.8,340.0L50.9,340.1L50.9,340.2L51.0,340.3L51.1,340.3L51.2,340.4L51.3,340.5L51.4,340.5L51.5,340.6L51.6,340.7L51.7,340.8L51.8,340.9L51.8,340.9L51.9,341.0Z"/><path d="M41.2,338.6L41.1,338.8L41.0,339.1L40.8,339.3L40.5,339.5L40.2,339.7L39.9,339.9L39.7,340.1L39.4,340.3L39.1,340.5L38.9,340.7L38.8,340.8L38.6,341.0L38.5,341.1L38.4,341.3L38.3,341.4L38.2,341.5L38.1,341.6L38.0,341.7L37.9,341.7L37.7,341.7L37.6,341.7L37.4,341.6L37.3,341.5L37.1,341.4L36.9,341.2L36.7,341.0L36.5,340.9L36.4,340.7L36.2,340.5L36.1,340.4L36.0,340.2L35.9,340.1L35.8,340.0L35.8,339.8L35.7,339.7L35.7,339.5L35.6,339.3L35.6,339.2L35.5,339.0L35.4,338.8L35.3,338.6L35.2,338.3L35.0,338.1L34.9,337.8L34.7,337.5L34.6,337.2L34.5,336.9L34.5,336.7L34.5,336.6L34.5,336.5L34.7,336.4L34.9,336.5L35.2,336.6L35.5,336.7L35.8,336.8L36.2,337.0L36.6,337.1L36.9,337.3L37.2,337.3L37.5,337.4L37.7,337.3L38.0,337.2L38.2,337.1L38.4,337.0L38.6,336.8L38.8,336.6L39.0,336.5L39.2,336.4L39.4,336.3L39.5,336.4L39.7,336.5L40.0,336.6L40.2,336.8L40.4,337.0L40.6,337.3L40.8,337.6L41.0,337.9L41.1,338.1L41.2,338.4Z"/><path d="M319.1,305.5L319.1,305.7L319.1,305.8L319.1,305.9L319.1,306.0L319.0,306.1L319.0,306.3L318.9,306.4L318.9,306.5L318.8,306.6L318.7,306.7L318.7,306.8L318.6,306.9L318.5,307.0L318.4,307.1L318.3,307.2L318.2,307.3L318.1,307.4L318.0,307.5L317.8,307.5L317.7,307.5L317.6,307.5L317.5,307.5L317.3,307.5L317.2,307.4L317.0,307.3L316.9,307.2L316.7,307.1L316.6,307.0L316.5,306.9L316.4,306.8L316.3,306.7L316.2,306.6L316.1,306.4L316.1,306.3L316.1,306.2L316.0,306.0L316.0,305.9L316.0,305.8L316.0,305.6L316.0,305.5L316.0,305.3L316.0,305.2L316.1,305.0L316.1,304.9L316.2,304.8L316.3,304.6L316.4,304.5L316.4,304.3L316.5,304.2L316.6,304.1L316.7,304.0L316.8,303.9L316.9,303.8L317.0,303.6L317.1,303.5L317.2,303.5L317.3,303.4L317.4,303.3L317.5,303.3L317.6,303.3L317.7,303.4L317.8,303.4L317.9,303.5L318.0,303.7L318.1,303.8L318.2,304.0L318.3,304.1L318.4,304.3L318.5,304.4L318.6,304.5L318.7,304.7L318.8,304.8L318.8,304.9L318.9,305.0L318.9,305.0L319.0,305.1L319.0,305.2L319.1,305.3L319.1,305.4Z"/><path d="M296.6,282.6L296.6,282.7L296.6,282.8L296.5,282.9L296.5,283.0L296.4,283.1L296.3,283.2L296.2,283.3L296.2,283.4L296.1,283.5L296.0,283.6L295.9,283.7L295.8,283.8L295.7,283.9L295.6,284.0L295.5,284.1L295.4,284.2L295.3,284.3L295.2,284.4L295.0,284.4L294.9,284.4L294.8,284.4L294.6,284.4L294.4,284.3L294.2,284.2L294.0,284.1L293.8,284.0L293.7,283.9L293.5,283.8L293.4,283.7L293.4,283.6L293.3,283.4L293.4,283.3L293.4,283.1L293.5,282.9L293.6,282.8L293.7,282.6L293.8,282.4L293.9,282.2L294.0,282.1L294.1,281.9L294.1,281.8L294.2,281.6L294.3,281.4L294.3,281.3L294.4,281.1L294.5,281.0L294.6,280.9L294.7,280.8L294.7,280.7L294.8,280.7L294.9,280.7L295.0,280.7L295.2,280.8L295.3,280.9L295.4,281.0L295.6,281.1L295.7,281.2L295.8,281.3L295.9,281.5L296.0,281.6L296.1,281.7L296.2,281.8L296.3,281.9L296.3,282.0L296.4,282.1L296.5,282.2L296.5,282.3L296.6,282.4L296.6,282.5Z"/><path d="M359.6,340.9L359.6,341.0L359.6,341.1L359.6,341.1L359.6,341.2L359.6,341.3L359.6,341.4L359.5,341.5L359.5,341.6L359.5,341.7L359.4,341.7L359.4,341.8L359.3,341.8L359.2,341.8L359.1,341.9L359.0,341.9L358.9,341.9L358.8,341.9L358.7,341.9L358.7,341.9L358.6,341.9L358.5,341.9L358.4,341.8L358.4,341.7L358.3,341.7L358.3,341.6L358.2,341.5L358.1,341.4L358.1,341.4L358.1,341.3L358.0,341.2L358.0,341.2L358.0,341.1L358.0,341.0L358.0,341.0L358.0,340.9L358.0,340.9L358.0,340.8L358.0,340.7L358.0,340.7L358.1,340.6L358.1,340.5L358.1,340.5L358.2,340.4L358.2,340.3L358.3,340.2L358.3,340.2L358.4,340.1L358.4,340.0L358.5,340.0L358.6,339.9L358.6,339.9L358.7,339.9L358.8,339.9L358.9,339.9L359.0,339.9L359.0,339.9L359.1,339.9L359.2,340.0L359.3,340.0L359.3,340.0L359.4,340.1L359.4,340.2L359.5,340.2L359.5,340.3L359.5,340.4L359.6,340.5L359.6,340.6L359.6,340.7L359.6,340.8Z"/><path d="M323.8,308.4L323.8,308.6L323.7,308.9L323.6,309.1L323.5,309.2L323.4,309.4L323.2,309.6L323.1,309.7L322.9,309.9L322.8,310.1L322.6,310.3L322.4,310.5L322.3,310.7L322.1,310.9L321.9,311.1L321.7,311.4L321.5,311.6L321.3,311.8L321.1,311.9L320.9,312.0L320.6,312.1L320.3,312.1L320.0,312.1L319.6,312.1L319.2,312.1L318.8,312.0L318.4,311.9L318.0,311.7L317.7,311.6L317.5,311.4L317.3,311.2L317.2,311.0L317.2,310.8L317.2,310.5L317.3,310.2L317.4,309.9L317.6,309.6L317.7,309.3L317.8,309.0L317.9,308.7L318.0,308.5L318.0,308.2L318.1,308.0L318.1,307.8L318.1,307.6L318.1,307.4L318.1,307.2L318.2,307.0L318.2,306.9L318.3,306.6L318.4,306.4L318.5,306.2L318.6,305.9L318.8,305.6L319.0,305.4L319.2,305.1L319.4,304.8L319.6,304.5L319.8,304.3L320.0,304.2L320.2,304.1L320.5,304.0L320.7,304.0L321.0,304.1L321.3,304.2L321.5,304.3L321.8,304.4L322.1,304.6L322.3,304.8L322.5,305.0L322.7,305.2L322.9,305.4L323.1,305.7L323.2,306.0L323.4,306.4L323.5,306.7L323.6,307.1L323.7,307.5L323.7,307.8L323.8,308.1Z"/><path d="M375.4,313.7L375.4,314.0L375.5,314.3L375.7,314.6L375.9,314.9L376.0,315.1L376.2,315.4L376.3,315.7L376.4,315.9L376.4,316.0L376.4,316.2L376.2,316.2L376.0,316.2L375.8,316.2L375.5,316.1L375.1,316.0L374.8,315.9L374.5,315.8L374.2,315.7L373.9,315.6L373.7,315.5L373.5,315.4L373.3,315.3L373.2,315.3L373.1,315.2L373.0,315.1L372.9,315.0L372.8,315.0L372.7,314.9L372.6,314.8L372.5,314.8L372.4,314.7L372.2,314.6L372.1,314.6L371.9,314.5L371.8,314.5L371.6,314.4L371.5,314.4L371.4,314.3L371.3,314.2L371.2,314.0L371.1,313.8L371.1,313.6L371.1,313.3L371.1,313.0L371.1,312.7L371.1,312.4L371.1,312.2L371.2,311.9L371.3,311.7L371.4,311.6L371.6,311.4L371.8,311.4L372.0,311.4L372.3,311.4L372.5,311.4L372.8,311.4L373.1,311.5L373.4,311.5L373.6,311.5L373.9,311.5L374.1,311.5L374.3,311.4L374.5,311.3L374.8,311.2L375.0,311.1L375.2,311.1L375.4,311.0L375.6,311.0L375.7,311.0L375.8,311.1L375.8,311.2L375.8,311.4L375.8,311.7L375.7,311.9L375.6,312.2L375.6,312.5L375.5,312.8L375.4,313.2L375.4,313.4Z"/><path d="M312.2,282.6L312.2,282.8L312.2,283.0L312.2,283.3L312.1,283.6L312.1,283.9L312.0,284.2L311.9,284.4L311.8,284.7L311.7,284.9L311.6,285.1L311.4,285.2L311.2,285.3L311.0,285.3L310.8,285.3L310.5,285.4L310.3,285.3L310.1,285.3L309.8,285.3L309.6,285.2L309.5,285.2L309.3,285.1L309.2,285.0L309.1,284.9L309.0,284.8L309.0,284.7L308.9,284.6L308.8,284.4L308.7,284.3L308.6,284.2L308.5,284.1L308.4,284.0L308.2,283.9L308.0,283.8L307.8,283.7L307.5,283.7L307.3,283.6L307.2,283.5L307.0,283.4L306.9,283.3L306.9,283.2L306.9,283.1L307.0,282.9L307.1,282.7L307.3,282.6L307.5,282.4L307.7,282.2L307.9,282.1L308.1,281.9L308.2,281.8L308.4,281.6L308.5,281.5L308.6,281.4L308.7,281.3L308.9,281.2L309.0,281.1L309.1,281.0L309.2,281.0L309.3,280.9L309.4,280.9L309.5,280.9L309.6,280.9L309.7,281.0L309.9,281.1L310.0,281.2L310.1,281.3L310.2,281.5L310.3,281.6L310.5,281.8L310.6,281.9L310.7,282.0L310.9,282.0L311.0,282.1L311.2,282.1L311.4,282.2L311.6,282.2L311.7,282.2L311.9,282.3L312.0,282.4L312.1,282.5Z"/><path d="M379.8,300.3L379.8,300.4L379.8,300.5L379.8,300.5L379.8,300.6L379.7,300.7L379.7,300.8L379.7,300.8L379.6,300.9L379.6,300.9L379.5,301.0L379.5,301.0L379.4,301.1L379.3,301.1L379.2,301.1L379.1,301.2L379.0,301.2L379.0,301.2L378.9,301.2L378.8,301.2L378.7,301.2L378.7,301.2L378.6,301.2L378.6,301.2L378.5,301.1L378.5,301.1L378.5,301.0L378.4,301.0L378.4,300.9L378.4,300.9L378.3,300.8L378.3,300.7L378.3,300.6L378.2,300.5L378.2,300.4L378.1,300.3L378.1,300.2L378.1,300.1L378.1,300.0L378.1,300.0L378.1,299.9L378.1,299.8L378.2,299.8L378.2,299.8L378.3,299.8L378.4,299.7L378.5,299.7L378.6,299.7L378.7,299.7L378.8,299.7L378.9,299.7L378.9,299.7L379.0,299.7L379.0,299.7L379.1,299.7L379.1,299.7L379.2,299.7L379.2,299.8L379.3,299.8L379.3,299.8L379.4,299.8L379.4,299.9L379.5,299.9L379.5,299.9L379.6,300.0L379.6,300.0L379.7,300.1L379.7,300.2L379.7,300.2L379.8,300.3Z"/><path d="M312.0,344.5L312.0,344.7L312.0,344.9L312.0,345.2L312.0,345.4L311.9,345.7L311.8,345.9L311.8,346.2L311.7,346.3L311.5,346.5L311.4,346.6L311.2,346.7L311.0,346.7L310.8,346.6L310.5,346.6L310.3,346.5L310.0,346.4L309.7,346.3L309.4,346.3L309.2,346.2L308.9,346.2L308.7,346.2L308.4,346.3L308.2,346.3L307.9,346.4L307.7,346.5L307.4,346.6L307.2,346.7L307.0,346.7L306.9,346.7L306.8,346.7L306.7,346.5L306.8,346.4L306.8,346.2L306.9,346.0L307.1,345.8L307.2,345.5L307.3,345.3L307.4,345.0L307.5,344.8L307.5,344.6L307.5,344.4L307.4,344.1L307.3,343.9L307.2,343.7L307.0,343.5L306.9,343.3L306.8,343.1L306.7,342.9L306.7,342.8L306.7,342.6L306.8,342.5L307.0,342.4L307.2,342.3L307.4,342.2L307.7,342.1L308.0,342.0L308.2,342.0L308.5,342.0L308.8,341.9L309.0,341.9L309.2,341.9L309.4,342.0L309.6,342.0L309.8,342.1L310.0,342.2L310.2,342.3L310.3,342.4L310.5,342.5L310.7,342.6L310.8,342.7L311.0,342.8L311.1,343.0L311.3,343.2L311.4,343.3L311.6,343.5L311.7,343.7L311.8,343.9L311.9,344.1L311.9,344.3Z"/><path d="M179.6,514.5L179.6,514.5L179.6,514.6L179.5,514.7L179.4,514.8L179.4,514.9L179.3,515.0L179.2,515.0L179.1,515.1L179.0,515.2L179.0,515.2L178.9,515.3L178.8,515.3L178.8,515.4L178.7,515.4L178.6,515.4L178.6,515.5L178.5,515.5L178.4,515.5L178.4,515.5L178.3,515.5L178.3,515.5L178.2,515.4L178.2,515.4L178.1,515.3L178.1,515.2L178.1,515.2L178.0,515.1L178.0,515.0L178.0,515.0L177.9,514.9L177.9,514.8L177.8,514.7L177.8,514.7L177.7,514.6L177.7,514.5L177.6,514.5L177.6,514.4L177.6,514.3L177.6,514.3L177.6,514.2L177.6,514.1L177.6,514.1L177.7,514.0L177.8,514.0L177.9,513.9L177.9,513.9L178.0,513.8L178.1,513.8L178.2,513.8L178.3,513.7L178.4,513.7L178.4,513.7L178.5,513.7L178.6,513.8L178.7,513.8L178.8,513.8L178.8,513.8L178.9,513.9L179.0,513.9L179.1,513.9L179.1,514.0L179.2,514.0L179.3,514.1L179.4,514.1L179.4,514.2L179.5,514.2L179.6,514.3L179.6,514.4L179.6,514.4Z"/><path d="M186.9,414.9L186.9,415.0L186.8,415.1L186.8,415.2L186.7,415.3L186.6,415.4L186.5,415.5L186.4,415.6L186.2,415.7L186.1,415.8L186.0,415.9L186.0,415.9L185.9,416.0L185.8,416.0L185.7,416.0L185.6,416.0L185.5,416.0L185.4,416.0L185.3,415.9L185.3,415.9L185.2,415.9L185.1,415.9L185.0,415.8L184.9,415.8L184.8,415.7L184.7,415.7L184.6,415.6L184.6,415.6L184.5,415.5L184.4,415.4L184.4,415.4L184.3,415.3L184.3,415.2L184.3,415.1L184.2,415.0L184.2,414.8L184.2,414.7L184.2,414.6L184.2,414.5L184.2,414.4L184.3,414.3L184.3,414.2L184.4,414.1L184.5,414.0L184.6,413.9L184.7,413.8L184.8,413.7L184.9,413.7L185.0,413.6L185.1,413.6L185.1,413.6L185.2,413.6L185.3,413.6L185.4,413.6L185.5,413.7L185.5,413.7L185.6,413.8L185.7,413.8L185.8,413.9L185.8,414.0L185.9,414.0L186.0,414.1L186.1,414.2L186.3,414.3L186.4,414.3L186.5,414.4L186.6,414.5L186.7,414.6L186.8,414.7L186.9,414.8Z"/><path d="M137.9,412.0L137.9,412.2L138.0,412.4L138.1,412.6L138.2,412.8L138.3,413.0L138.3,413.2L138.4,413.4L138.4,413.5L138.4,413.7L138.4,413.9L138.3,414.1L138.1,414.3L138.0,414.5L137.8,414.7L137.5,414.9L137.3,415.0L137.1,415.2L136.9,415.3L136.7,415.3L136.5,415.3L136.4,415.2L136.3,415.1L136.2,414.9L136.1,414.7L136.0,414.4L135.9,414.1L135.8,413.8L135.7,413.6L135.6,413.3L135.5,413.2L135.4,413.0L135.2,412.9L135.0,412.7L134.9,412.6L134.7,412.5L134.5,412.4L134.3,412.3L134.2,412.2L134.1,412.1L134.1,412.0L134.2,411.9L134.2,411.8L134.4,411.8L134.5,411.7L134.7,411.7L134.9,411.6L135.1,411.5L135.3,411.5L135.4,411.4L135.6,411.2L135.6,411.0L135.7,410.8L135.7,410.6L135.8,410.3L135.8,410.0L135.8,409.7L135.8,409.5L135.9,409.3L135.9,409.1L136.0,409.1L136.1,409.1L136.3,409.1L136.5,409.3L136.6,409.4L136.8,409.6L137.0,409.8L137.2,410.0L137.4,410.2L137.5,410.4L137.6,410.6L137.7,410.7L137.7,410.9L137.8,411.0L137.8,411.1L137.8,411.3L137.8,411.4L137.8,411.6L137.8,411.7L137.8,411.9Z"/><path d="M133.6,563.0L133.6,563.1L133.6,563.3L133.5,563.4L133.5,563.5L133.5,563.6L133.5,563.8L133.4,563.9L133.4,564.0L133.3,564.0L133.3,564.1L133.2,564.2L133.1,564.2L133.0,564.2L132.9,564.3L132.8,564.3L132.7,564.3L132.6,564.2L132.4,564.2L132.3,564.2L132.3,564.2L132.2,564.1L132.1,564.1L132.0,564.0L132.0,563.9L131.9,563.9L131.8,563.8L131.8,563.7L131.7,563.6L131.7,563.5L131.7,563.4L131.6,563.4L131.6,563.3L131.6,563.2L131.6,563.1L131.6,563.1L131.6,563.0L131.6,562.9L131.6,562.8L131.6,562.7L131.7,562.7L131.7,562.6L131.7,562.5L131.7,562.3L131.7,562.2L131.8,562.1L131.8,562.0L131.8,561.9L131.9,561.8L132.0,561.7L132.0,561.7L132.1,561.6L132.3,561.6L132.4,561.6L132.5,561.6L132.7,561.6L132.9,561.6L133.0,561.7L133.1,561.7L133.3,561.8L133.3,561.8L133.4,561.9L133.5,562.0L133.5,562.1L133.5,562.2L133.6,562.4L133.6,562.5L133.6,562.6L133.6,562.8L133.6,562.9Z"/><path d="M269.9,414.4L270.6,416.5L270.8,418.5L270.6,420.4L270.9,422.5L271.3,423.3L271.3,423.3L271.3,422.5L271.9,420.6L272.3,418.5L271.7,416.4L272.6,414.6L272.4,415.1L272.0,415.6L271.5,415.8L270.9,415.8L270.4,415.5L270.0,415.0Z"/><path d="M172.8,438.1L172.8,435.8L171.9,433.8L171.8,433.1L171.8,433.1L171.4,433.8L171.1,435.8L170.2,437.5L170.4,436.9L170.9,436.6L171.5,436.4L172.1,436.6L172.6,436.9L172.8,437.5Z"/><path d="M274.4,563.8L274.9,565.8L276.1,567.6L276.6,569.5L276.9,569.8L276.9,569.8L277.1,569.4L276.9,567.4L277.1,565.4L277.1,563.4L277.1,564.0L276.7,564.5L276.2,564.9L275.6,564.9L275.1,564.7L274.6,564.3Z"/><path d="M251.4,35.3L251.4,35.4L251.4,35.5L251.4,35.5L251.4,35.6L251.3,35.7L251.3,35.7L251.3,35.8L251.2,35.8L251.2,35.8L251.1,35.9L251.1,35.9L251.0,35.9L251.0,35.9L250.9,35.9L250.9,35.9L250.8,35.9L250.8,35.9L250.7,35.9L250.6,35.8L250.6,35.8L250.5,35.8L250.5,35.8L250.4,35.7L250.4,35.7L250.3,35.7L250.3,35.6L250.2,35.6L250.2,35.6L250.2,35.5L250.1,35.5L250.1,35.4L250.1,35.4L250.1,35.3L250.1,35.3L250.0,35.3L250.0,35.2L250.0,35.2L250.0,35.1L250.1,35.1L250.1,35.0L250.1,35.0L250.1,34.9L250.1,34.8L250.2,34.8L250.2,34.7L250.2,34.7L250.3,34.6L250.3,34.6L250.4,34.5L250.4,34.5L250.5,34.5L250.6,34.5L250.7,34.5L250.8,34.5L250.9,34.5L251.0,34.5L251.1,34.5L251.2,34.6L251.2,34.6L251.3,34.6L251.3,34.7L251.4,34.7L251.4,34.8L251.4,34.9L251.4,35.0L251.5,35.1L251.5,35.1L251.5,35.2L251.4,35.3Z"/><path d="M160.3,122.0L160.3,122.1L160.3,122.3L160.3,122.4L160.3,122.6L160.2,122.8L160.2,122.9L160.1,123.1L160.0,123.2L159.9,123.3L159.9,123.4L159.8,123.4L159.7,123.4L159.6,123.4L159.5,123.4L159.3,123.4L159.2,123.3L159.1,123.3L159.0,123.2L158.9,123.2L158.7,123.1L158.6,123.1L158.5,123.0L158.4,123.0L158.2,123.0L158.1,122.9L158.0,122.9L157.9,122.9L157.8,122.8L157.7,122.7L157.6,122.7L157.5,122.6L157.5,122.5L157.4,122.4L157.4,122.2L157.4,122.1L157.3,122.0L157.3,121.9L157.3,121.7L157.4,121.6L157.4,121.5L157.5,121.5L157.6,121.4L157.7,121.3L157.9,121.2L158.0,121.1L158.2,121.1L158.4,121.0L158.5,121.0L158.7,121.0L158.8,120.9L158.9,120.9L159.0,121.0L159.1,121.0L159.2,121.1L159.3,121.1L159.4,121.2L159.5,121.3L159.5,121.3L159.6,121.4L159.7,121.5L159.8,121.5L159.9,121.5L160.0,121.6L160.0,121.6L160.1,121.7L160.2,121.7L160.2,121.8L160.3,121.9L160.3,121.9Z"/><path d="M108.5,80.3L108.6,80.4L108.6,80.4L108.6,80.5L108.6,80.6L108.6,80.7L108.6,80.7L108.5,80.8L108.5,80.9L108.5,80.9L108.4,81.0L108.4,81.0L108.3,81.1L108.2,81.1L108.2,81.1L108.1,81.2L108.0,81.2L107.9,81.2L107.8,81.3L107.7,81.3L107.6,81.3L107.5,81.3L107.4,81.2L107.3,81.2L107.2,81.2L107.1,81.1L107.0,81.1L106.9,81.0L106.9,81.0L106.8,80.9L106.8,80.8L106.8,80.8L106.8,80.7L106.8,80.6L106.8,80.5L106.8,80.4L106.9,80.3L106.9,80.2L107.0,80.1L107.0,80.0L107.1,79.9L107.1,79.8L107.2,79.7L107.2,79.7L107.3,79.6L107.3,79.5L107.4,79.5L107.5,79.4L107.5,79.4L107.6,79.3L107.7,79.3L107.7,79.3L107.8,79.3L107.9,79.3L107.9,79.4L108.0,79.4L108.0,79.5L108.1,79.5L108.2,79.6L108.2,79.6L108.3,79.7L108.3,79.7L108.3,79.8L108.4,79.9L108.4,79.9L108.4,80.0L108.5,80.0L108.5,80.1L108.5,80.2L108.5,80.2Z"/><path d="M228.3,-4.7L228.3,-4.5L228.2,-4.4L228.1,-4.2L228.0,-4.1L227.9,-3.9L227.7,-3.7L227.6,-3.6L227.4,-3.4L227.3,-3.3L227.2,-3.2L227.0,-3.2L226.9,-3.1L226.8,-3.1L226.7,-3.1L226.6,-3.1L226.5,-3.2L226.3,-3.2L226.2,-3.2L226.1,-3.3L225.9,-3.3L225.8,-3.3L225.6,-3.3L225.5,-3.3L225.3,-3.3L225.1,-3.3L225.0,-3.3L224.8,-3.3L224.7,-3.3L224.6,-3.4L224.5,-3.5L224.4,-3.6L224.3,-3.8L224.3,-4.0L224.2,-4.2L224.2,-4.4L224.2,-4.7L224.2,-4.9L224.2,-5.1L224.3,-5.3L224.4,-5.4L224.4,-5.5L224.6,-5.6L224.7,-5.7L224.9,-5.8L225.1,-5.9L225.3,-6.0L225.5,-6.0L225.7,-6.0L225.9,-6.1L226.1,-6.1L226.2,-6.1L226.4,-6.1L226.5,-6.0L226.6,-6.0L226.7,-6.0L226.9,-5.9L227.0,-5.8L227.1,-5.8L227.2,-5.7L227.3,-5.6L227.5,-5.6L227.6,-5.5L227.7,-5.4L227.8,-5.3L228.0,-5.2L228.1,-5.1L228.2,-5.0L228.2,-4.9L228.3,-4.8Z"/><path d="M95.6,53.9L95.6,54.0L95.6,54.0L95.6,54.1L95.6,54.1L95.6,54.1L95.5,54.2L95.5,54.2L95.5,54.3L95.5,54.3L95.4,54.4L95.4,54.4L95.3,54.5L95.2,54.6L95.2,54.6L95.1,54.7L95.0,54.8L94.9,54.8L94.9,54.9L94.8,54.9L94.7,54.9L94.7,54.9L94.6,54.9L94.5,54.9L94.5,54.8L94.4,54.7L94.4,54.7L94.3,54.6L94.3,54.6L94.2,54.5L94.2,54.4L94.2,54.3L94.2,54.3L94.2,54.2L94.2,54.1L94.2,54.0L94.3,53.9L94.3,53.8L94.3,53.7L94.4,53.7L94.4,53.6L94.4,53.5L94.5,53.5L94.5,53.5L94.6,53.4L94.6,53.4L94.7,53.4L94.7,53.4L94.8,53.3L94.8,53.3L94.8,53.3L94.9,53.3L95.0,53.3L95.0,53.3L95.1,53.3L95.1,53.3L95.2,53.3L95.3,53.3L95.3,53.3L95.4,53.3L95.4,53.4L95.4,53.4L95.5,53.5L95.5,53.5L95.5,53.6L95.6,53.6L95.6,53.7L95.6,53.7L95.6,53.8L95.6,53.9Z"/></g></svg>
